<svg width="117" height="102" viewBox="0 0 117 102" fill="none" xmlns="http://www.w3.org/2000/svg">
<g id="angus-golden-beef" clip-path="url(#clip0_675_1991)">
<path id="Vector" d="M87.8197 26.3604C83.0696 25.3177 68.124 15.8174 58.8554 16.3967C49.4709 15.8174 34.7571 25.2019 29.8911 26.3604C26.5312 27.1714 23.6348 26.4763 23.6348 26.4763C27.2263 33.7753 27.5739 66.5629 27.5739 66.5629C28.5008 80.4658 58.7395 93.4418 58.8554 93.4418C58.8554 93.4418 89.0941 80.4658 90.1368 66.5629C90.1368 66.5629 90.4844 33.7753 94.076 26.4763C94.076 26.3604 91.1796 27.0556 87.8197 26.3604Z" fill="#D7B46A"/>
<path id="Vector_2" d="M85.271 28.7934C80.8684 27.7507 67.3131 19.1773 58.7397 19.7566C50.1662 19.1773 36.7268 27.8666 32.3242 28.7934C29.3119 29.4886 26.6472 28.7934 26.6472 28.7934C30.0071 35.3973 30.2388 65.4043 30.2388 65.4043C31.1657 78.1486 58.7397 89.9661 58.7397 89.9661C58.7397 89.9661 86.4296 78.1486 87.3564 65.4043C87.3564 65.4043 87.704 35.5132 90.948 28.7934C91.0639 28.9093 88.3991 29.4886 85.271 28.7934Z" fill="black"/>
<path id="Vector_3" d="M59.5507 21.6103C64.8802 21.6103 72.0633 25.086 77.3928 27.519C80.1733 28.9093 82.3746 29.952 83.7649 30.1837C84.9235 30.4154 86.0821 30.5313 87.3565 30.5313C87.9358 30.5313 88.3992 30.5313 88.7468 30.5313C85.8503 37.5986 85.5028 63.6665 85.5028 64.825C84.6918 76.2949 60.5934 87.0696 58.7397 87.8806C56.7702 87.0696 32.9036 76.6425 32.0926 64.9409C32.0926 63.7823 31.745 37.7144 28.8485 30.6471C29.1961 30.6471 29.6595 30.6471 30.2388 30.6471C31.5133 30.6471 32.6718 30.5313 33.8304 30.2996C35.2207 29.952 37.422 28.9093 40.2026 27.6348C45.4161 25.086 52.7152 21.7261 57.9287 21.7261C58.1604 21.7261 58.3922 21.7261 58.6239 21.7261C59.0873 21.7261 59.319 21.6103 59.5507 21.6103ZM59.5507 21.3785C59.319 21.3785 59.0873 21.3785 58.8556 21.3785C58.6239 21.3785 58.3922 21.3785 58.1604 21.3785C50.0504 21.3785 37.8854 29.141 33.9463 30.0678C32.556 30.4154 31.3974 30.4154 30.3547 30.4154C29.1961 30.4154 28.501 30.2996 28.501 30.2996C31.6291 36.6717 31.9767 64.9409 31.9767 64.9409C32.7877 76.99 57.5812 87.7648 58.9714 88.2282C58.9714 88.2282 85.1552 76.99 85.9662 64.9409C85.9662 64.9409 86.3138 36.6717 89.4419 30.2996C89.4419 30.2996 88.7468 30.4154 87.5882 30.4154C86.6613 30.4154 85.3869 30.2996 83.9966 30.0678C79.8258 29.141 67.6607 21.3785 59.5507 21.3785Z" fill="#D7B46A"/>
<path id="Vector_4" fill-rule="evenodd" clip-rule="evenodd" d="M58.8556 4.11572L59.8983 7.59144H63.6058L60.5935 9.79273L61.752 13.2684L58.8556 11.0672L55.8433 13.2684L57.0019 9.79273L54.1055 7.59144H57.697L58.8556 4.11572Z" fill="#D7B46A"/>
<path id="Vector_5" fill-rule="evenodd" clip-rule="evenodd" d="M47.5015 8.28662L49.1235 10.4879L51.6724 9.67691L50.0504 11.8782L51.6724 14.0795L49.1235 13.2685L47.5015 15.4698V12.6892L44.9526 11.8782L47.5015 11.0672V8.28662Z" fill="#D7B46A"/>
<path id="Vector_6" fill-rule="evenodd" clip-rule="evenodd" d="M38.233 12.2258L39.9709 14.3113L42.5197 13.2685L41.1295 15.5857L42.8673 17.6711L40.2026 16.976L38.8123 19.2931L38.5806 16.6284L36.0317 16.0491L38.4647 15.0064L38.233 12.2258Z" fill="#D7B46A"/>
<path id="Vector_7" fill-rule="evenodd" clip-rule="evenodd" d="M69.862 8.28662L68.24 10.4879L65.6912 9.67691L67.3132 11.8782L65.6912 14.0795L68.24 13.2685L69.862 15.4698V12.6892L72.4109 11.8782L69.862 11.0672V8.28662Z" fill="#D7B46A"/>
<path id="Vector_8" fill-rule="evenodd" clip-rule="evenodd" d="M79.1306 12.2258L77.3928 14.3113L74.8439 13.2685L76.2342 15.5857L74.4963 17.6711L77.161 16.976L78.5513 19.2931L78.7831 16.6284L81.3319 16.0491L78.8989 15.0064L79.1306 12.2258Z" fill="#D7B46A"/>
<path id="Vector_9" d="M47.7331 72.7033C47.7331 72.3557 47.7331 72.0081 47.7331 71.7764C47.7331 71.5447 47.849 71.4288 47.9648 71.313C48.0807 71.313 48.0807 71.313 48.1966 71.313C48.1966 71.313 48.3124 71.313 48.3124 71.1971C48.3124 71.1971 48.3124 71.0813 48.1966 71.0813C47.9648 71.0813 47.5014 71.0813 47.2697 71.0813C47.038 71.0813 46.5746 71.0813 46.227 71.0813C46.1111 71.0813 46.1111 71.0813 46.1111 71.1971C46.1111 71.1971 46.1111 71.313 46.227 71.313C46.3428 71.313 46.4587 71.313 46.5746 71.313C46.8063 71.313 46.9221 71.5447 46.9221 71.7764V72.7033V73.3984C46.9221 73.5143 46.9221 73.6301 46.8063 73.6301C46.5746 73.746 46.3428 73.746 46.1111 73.746C44.4891 73.746 43.4464 72.4715 43.4464 70.8495C43.4464 69.9227 43.6781 69.3434 44.1416 68.9958C44.605 68.5324 45.1843 68.5324 45.5318 68.5324C46.3428 68.5324 47.038 68.88 47.2697 69.1117C47.5014 69.3434 47.5014 69.5751 47.5014 69.691C47.5014 69.691 47.5014 69.8068 47.6173 69.8068C47.7331 69.8068 47.7331 69.8068 47.7331 69.691C47.7331 68.7641 47.7331 68.5324 47.7331 68.4165C47.7331 68.4165 47.7331 68.3007 47.6173 68.3007C47.3856 68.3007 47.1538 68.3007 47.038 68.1848C46.9221 68.1848 46.227 68.069 45.6477 68.069C45.0684 68.069 44.3733 68.069 43.5623 68.5324C42.8671 68.9958 42.2878 69.8068 42.2878 71.0813C42.2878 73.1667 43.9098 74.0935 45.7636 74.0935C46.3428 74.0935 47.1538 73.9777 47.6173 73.746C47.7331 73.746 47.7331 73.6301 47.7331 73.5143V72.7033ZM51.7881 74.0935C53.526 74.0935 54.5687 72.935 54.5687 71.4288C54.5687 69.9227 53.526 68.9958 51.7881 68.9958C49.8186 68.9958 49.0076 70.3861 49.0076 71.5447C49.0076 72.7033 49.8186 74.0935 51.7881 74.0935ZM52.0199 73.746C50.7454 73.746 50.0503 72.7033 50.0503 71.313C50.0503 69.691 50.9771 69.3434 51.6723 69.3434C52.715 69.3434 53.6419 70.2703 53.6419 71.6605C53.526 73.5143 52.4833 73.746 52.0199 73.746ZM56.6541 70.9654C56.6541 69.9227 56.6541 69.8068 56.6541 69.5751C56.6541 69.3434 56.77 69.2275 56.8859 69.2275C57.0017 69.2275 57.1176 69.2275 57.1176 69.2275C57.2334 69.2275 57.2334 69.2275 57.2334 69.1117C57.2334 69.1117 57.2334 68.9958 57.1176 68.9958C56.8859 68.9958 56.3066 68.9958 56.1907 68.9958C55.959 68.9958 55.6114 68.9958 55.2639 68.9958C55.148 68.9958 55.148 68.9958 55.148 69.1117C55.148 69.1117 55.148 69.2275 55.2639 69.2275C55.3797 69.2275 55.3797 69.2275 55.4956 69.2275C55.7273 69.2275 55.7273 69.3434 55.7273 69.5751C55.7273 69.8068 55.7273 69.9227 55.7273 70.9654V72.124C55.7273 72.7033 55.7273 73.2825 55.7273 73.5143C55.7273 73.746 55.6114 73.8618 55.4956 73.8618C55.4956 73.8618 55.3797 73.8618 55.2639 73.8618C55.148 73.8618 55.148 73.8618 55.148 73.9777C55.148 73.9777 55.148 74.0935 55.2639 74.0935C55.3797 74.0935 55.6114 74.0935 55.7273 74.0935C55.8431 74.0935 56.0749 74.0935 56.0749 74.0935C56.3066 74.0935 56.6541 74.0935 57.0017 74.0935C57.3493 74.0935 57.6969 74.0935 58.1603 74.0935C58.5079 74.0935 58.5079 74.0935 58.6237 73.8618C58.6237 73.6301 58.7396 73.1667 58.7396 73.1667C58.7396 73.0508 58.7396 73.0508 58.6237 73.0508C58.6237 73.0508 58.5079 73.0508 58.5079 73.1667C58.5079 73.2825 58.392 73.5143 58.392 73.5143C58.2761 73.746 57.9286 73.746 57.581 73.746C57.1176 73.746 56.77 73.746 56.6541 73.6301C56.5383 73.5143 56.5383 73.0508 56.5383 72.2398V70.9654H56.6541ZM60.014 72.124C60.014 72.7033 60.014 73.2825 60.014 73.5143C60.014 73.746 59.8981 73.8618 59.7823 73.8618C59.6664 73.8618 59.6664 73.8618 59.5506 73.8618C59.4347 73.8618 59.4347 73.8618 59.4347 73.9777C59.4347 73.9777 59.4347 74.0935 59.5506 74.0935C59.6664 74.0935 59.8981 74.0935 60.014 74.0935C60.1299 74.0935 60.3616 74.0935 60.3616 74.0935C60.4774 74.0935 60.825 74.0935 61.0567 74.0935C61.2884 74.0935 61.636 74.0935 61.8677 74.0935C63.1422 74.0935 63.8373 73.6301 64.069 73.2825C64.4166 72.935 64.7642 72.2398 64.7642 71.4288C64.7642 70.6178 64.4166 70.1544 64.1849 69.8068C63.4897 69.1117 62.3311 69.1117 61.5201 69.1117C61.0567 69.1117 60.5933 69.1117 60.4774 69.1117C60.2457 69.1117 59.8981 69.1117 59.5506 69.1117C59.4347 69.1117 59.4347 69.1117 59.4347 69.2275C59.4347 69.2275 59.4347 69.3434 59.5506 69.3434C59.6664 69.3434 59.7823 69.3434 59.7823 69.3434C60.014 69.3434 60.014 69.4593 60.014 69.691C60.014 69.9227 60.014 70.0385 60.014 71.0813V72.124ZM60.825 70.8495V69.5751C60.825 69.4593 60.825 69.4593 60.9409 69.4593C60.9409 69.4593 61.1726 69.4593 61.4043 69.4593C61.9836 69.4593 62.6787 69.5751 63.258 70.0385C63.6056 70.2703 63.8373 70.8495 63.8373 71.6605C63.8373 72.3557 63.7214 72.935 63.258 73.2825C62.7946 73.6301 62.447 73.746 61.7519 73.746C61.2884 73.746 60.9409 73.6301 60.825 73.5143C60.825 73.3984 60.7091 73.1667 60.7091 73.0508C60.7091 72.935 60.7091 72.4715 60.7091 71.7764V70.8495H60.825ZM66.1544 72.124C66.1544 72.7033 66.1544 73.2825 66.1544 73.5143C66.1544 73.746 66.1544 73.8618 65.9227 73.8618C65.8069 73.8618 65.8069 73.8618 65.691 73.8618C65.5752 73.8618 65.5752 73.8618 65.5752 73.9777C65.5752 73.9777 65.5752 74.0935 65.691 74.0935C65.8069 74.0935 66.0386 74.0935 66.1544 74.0935C66.2703 74.0935 66.502 74.0935 66.502 74.0935C66.7337 74.0935 66.9654 74.0935 67.313 74.0935C67.6606 74.0935 68.0082 74.0935 68.5874 74.0935C68.8192 74.0935 68.935 74.0935 68.935 73.9777C68.935 73.8618 69.0509 73.3984 69.0509 73.2825C69.0509 73.1667 69.0509 73.1667 68.935 73.1667C68.935 73.1667 68.935 73.1667 68.8192 73.2825C68.8192 73.5143 68.7033 73.6301 68.5874 73.746C68.3557 73.8618 68.124 73.8618 68.0082 73.8618C67.313 73.8618 67.0813 73.746 67.0813 73.2825V72.3557V71.7764V71.6605C67.1972 71.6605 68.0082 71.6605 68.124 71.6605C68.3557 71.6605 68.4716 71.7764 68.4716 71.8923C68.4716 72.0081 68.4716 72.0081 68.4716 72.124C68.4716 72.124 68.4716 72.124 68.5874 72.124L68.7033 72.0081C68.7033 72.0081 68.7033 71.6605 68.7033 71.5447C68.7033 71.1971 68.7033 71.0813 68.7033 71.0813V70.9654C68.7033 70.9654 68.7033 70.9654 68.5874 71.0813C68.4716 71.1971 68.4716 71.1971 68.2399 71.1971C68.124 71.1971 67.1972 71.1971 67.0813 71.1971C67.0813 71.1971 67.0813 71.1971 67.0813 71.0813V69.4593V69.3434C67.1972 69.3434 68.0082 69.3434 68.124 69.3434C68.4716 69.3434 68.4716 69.4593 68.5874 69.5751C68.5874 69.691 68.5874 69.8068 68.5874 69.8068V69.9227L68.7033 69.8068C68.7033 69.691 68.7033 69.4593 68.7033 69.3434C68.7033 68.9958 68.7033 68.9958 68.7033 68.88V68.7641H68.5874C68.5874 68.7641 68.4716 68.7641 68.3557 68.7641H66.502C66.2703 68.7641 65.9227 68.7641 65.5752 68.7641C65.4593 68.7641 65.4593 68.7641 65.4593 68.88C65.4593 68.88 65.4593 68.9958 65.5752 68.9958C65.691 68.9958 65.8069 68.9958 65.8069 68.9958C66.0386 68.9958 66.0386 69.1117 66.1544 69.3434V70.7337V72.124ZM70.7887 70.502C70.9046 70.6178 71.5997 71.4288 72.4107 72.124C73.1059 72.8191 73.9169 73.6301 74.3803 73.9777C74.4962 74.0935 74.4962 74.0935 74.612 74.0935C74.612 74.0935 74.7279 73.9777 74.7279 73.8618L74.8437 69.8068C74.8437 69.4593 74.9596 69.3434 75.0755 69.2275C75.1913 69.2275 75.1913 69.2275 75.3072 69.2275C75.423 69.2275 75.423 69.2275 75.423 69.1117C75.423 69.1117 75.423 68.9958 75.3072 68.9958C74.9596 68.9958 74.7279 68.9958 74.612 68.9958C74.4962 68.9958 74.1486 68.9958 73.801 68.9958C73.6852 68.9958 73.6852 68.9958 73.6852 69.1117C73.6852 69.1117 73.6852 69.2275 73.801 69.2275C73.9169 69.2275 74.0327 69.2275 74.1486 69.2275C74.2644 69.3434 74.3803 69.4593 74.3803 69.8068L74.4962 72.7033C74.3803 72.5874 73.4534 71.6605 73.1059 71.1971C72.179 70.2703 71.1363 69.2275 71.0204 69.1117C70.9046 68.9958 70.7887 68.88 70.7887 68.88C70.6729 68.88 70.6729 68.9958 70.6729 69.1117L70.557 72.935C70.557 73.5143 70.557 73.6301 70.3253 73.746C70.2094 73.746 70.0936 73.746 69.9777 73.746C69.8619 73.746 69.8619 73.746 69.8619 73.8618C69.8619 73.9777 69.8619 73.9777 69.9777 73.9777C70.3253 73.9777 70.6729 73.9777 70.6729 73.9777C70.7887 73.9777 71.1363 73.9777 71.4839 73.9777C71.5997 73.9777 71.5997 73.9777 71.5997 73.8618C71.5997 73.8618 71.5997 73.746 71.4839 73.746C71.368 73.746 71.2522 73.746 71.1363 73.746C71.0204 73.746 70.9046 73.5143 70.9046 73.0508L70.7887 70.502Z" fill="#D7B46A"/>
<path id="Vector_10" d="M40.55 37.5986C40.6659 37.5986 40.6659 37.5986 40.6659 37.7144L41.8245 40.6109C41.9403 40.7267 41.8245 40.9584 41.7086 40.9584C41.5928 40.9584 41.4769 40.9584 41.4769 41.0743C41.4769 41.1901 41.5928 41.1901 41.9403 41.1901C43.0989 41.1901 44.0258 41.1901 44.605 41.1901C45.0685 41.1901 45.3002 41.1901 45.3002 41.0743C45.3002 40.9584 45.1843 40.9584 45.0685 40.9584C44.9526 40.9584 44.7209 40.9584 44.4892 40.8426C44.2575 40.7267 43.794 40.6109 43.2148 39.3364C42.2879 37.251 40.0866 31.574 39.739 30.763C39.5073 30.5313 39.5073 30.2996 39.3915 30.2996C39.2756 30.2996 39.1598 30.4154 39.0439 30.8788L35.5682 39.5681C35.3365 40.2633 34.9889 40.7267 34.4096 40.8426C34.2938 40.8426 34.062 40.8426 33.9462 40.8426C33.8303 40.8426 33.8303 40.8426 33.8303 40.9584C33.8303 41.0743 33.9462 41.0743 34.062 41.0743C34.7572 41.0743 35.5682 41.0743 35.684 41.0743C36.1475 41.0743 36.7268 41.0743 37.1902 41.0743C37.306 41.0743 37.4219 41.0743 37.4219 40.9584C37.4219 40.8426 37.4219 40.8426 37.1902 40.8426H36.9585C36.495 40.8426 36.3792 40.6109 36.3792 40.3791C36.3792 40.2633 36.495 39.9157 36.6109 39.5681L37.4219 37.5986C37.4219 37.4827 37.4219 37.4827 37.5378 37.4827H40.55V37.5986ZM37.6536 36.9034L38.928 33.4277C38.928 33.3119 38.928 33.3119 39.0439 33.3119C39.1598 33.3119 39.1598 33.4277 39.1598 33.4277L40.4342 36.9034C40.4342 36.9034 40.4342 37.0193 40.3183 37.0193H37.6536V36.9034ZM46.9222 34.7021C47.1539 34.9339 48.5442 36.3241 49.8186 37.5986C51.0931 38.873 52.5992 40.3791 53.4102 41.0743C53.5261 41.1901 53.7578 41.306 53.8736 41.306C53.9895 41.306 54.1053 41.1901 54.1053 40.9584L54.2212 33.4277C54.2212 32.7326 54.3371 32.5008 54.6846 32.385C54.8005 32.385 54.9163 32.385 55.0322 32.385C55.1481 32.385 55.2639 32.385 55.2639 32.2691C55.2639 32.1533 55.1481 32.1533 55.0322 32.1533C54.4529 32.1533 53.9895 32.1533 53.8736 32.1533C53.6419 32.1533 52.9468 32.1533 52.3675 32.1533C52.1358 32.1533 52.0199 32.1533 52.0199 32.2691C52.0199 32.385 52.0199 32.385 52.2516 32.385C52.3675 32.385 52.7151 32.385 52.8309 32.5008C53.1785 32.6167 53.2943 32.8484 53.2943 33.5436L53.4102 38.873C53.1785 38.7571 51.5565 37.0193 50.7455 36.2083C49.0076 34.4704 47.1539 32.5008 46.9222 32.385C46.6905 32.1533 46.5746 32.0374 46.3429 32.0374C46.227 32.0374 46.1112 32.1533 46.1112 32.385L45.9953 39.4523C45.9953 40.495 45.9953 40.8426 45.6478 40.8426C45.5319 40.8426 45.3002 40.9584 45.0685 40.9584C44.9526 40.9584 44.8368 40.9584 44.8368 41.0743C44.8368 41.1901 44.9526 41.1901 45.0685 41.1901C45.6478 41.1901 46.227 41.1901 46.3429 41.1901C46.5746 41.1901 47.1539 41.1901 47.9649 41.1901C48.0808 41.1901 48.1966 41.1901 48.1966 41.0743C48.1966 40.9584 48.0808 40.9584 47.9649 40.9584C47.7332 40.9584 47.5015 40.9584 47.2698 40.8426C47.0381 40.7267 46.9222 40.495 46.8063 39.5681L46.9222 34.7021ZM65.3435 39.1047C65.3435 38.5254 65.3435 38.062 65.3435 37.7144C65.3435 37.251 65.4594 37.1351 65.8069 37.0193C65.9228 37.0193 66.0386 37.0193 66.1545 37.0193C66.2704 37.0193 66.2704 37.0193 66.2704 36.9034C66.2704 36.7876 66.1545 36.7876 66.0386 36.7876C65.5752 36.7876 64.9959 36.7876 64.6484 36.7876C64.3008 36.7876 63.3739 36.7876 62.7946 36.7876C62.6788 36.7876 62.5629 36.7876 62.5629 36.9034C62.5629 37.0193 62.6788 37.0193 62.7946 37.0193C62.9105 37.0193 63.1422 37.0193 63.2581 37.0193C63.6056 37.1351 63.7215 37.251 63.8374 37.7144C63.8374 38.062 63.8374 38.5254 63.8374 39.1047V40.1474C63.8374 40.3791 63.8374 40.495 63.6056 40.6109C63.1422 40.7267 62.9105 40.7267 62.6788 40.7267C60.0141 40.7267 58.3921 38.873 58.3921 36.3241C58.3921 34.818 58.8555 34.007 59.5506 33.4277C60.3616 32.7326 61.2885 32.7326 61.8678 32.7326C63.2581 32.7326 64.1849 33.3118 64.5325 33.6594C64.8801 34.007 64.8801 34.3546 64.9959 34.5863C64.9959 34.7021 64.9959 34.7021 65.1118 34.7021C65.2276 34.7021 65.2276 34.5863 65.2276 34.4704C65.2276 32.9643 65.3435 32.6167 65.3435 32.5008C65.3435 32.385 65.3435 32.385 65.2276 32.385C64.8801 32.385 64.5325 32.2691 64.3008 32.2691C64.0691 32.1533 63.0264 32.0374 62.0995 32.0374C61.0568 32.0374 60.0141 32.1533 58.8555 32.8484C57.6969 33.5436 56.7701 34.818 56.7701 36.7876C56.7701 40.1474 59.4348 41.4219 62.4471 41.4219C63.3739 41.4219 64.6484 41.306 65.4594 40.8426C65.5752 40.7267 65.5752 40.7267 65.5752 40.3791V39.1047H65.3435ZM68.2399 37.3669C68.2399 39.1047 68.7034 40.0316 69.3985 40.495C70.3254 41.306 71.5998 41.306 72.1791 41.306C72.9901 41.306 73.9169 41.1901 74.7279 40.495C75.7707 39.684 75.8865 38.2937 75.8865 36.9034V35.629C75.8865 33.7753 75.8865 33.4277 75.8865 33.0801C75.8865 32.6167 76.0024 32.5008 76.3499 32.385C76.4658 32.385 76.5817 32.385 76.6975 32.385C76.8134 32.385 76.9292 32.385 76.9292 32.2691C76.9292 32.1533 76.8134 32.1533 76.6975 32.1533C76.2341 32.1533 75.4231 32.1533 75.3072 32.1533C75.3072 32.1533 74.4962 32.1533 73.8011 32.1533C73.6852 32.1533 73.5694 32.1533 73.5694 32.2691C73.5694 32.385 73.6852 32.385 73.8011 32.385C73.9169 32.385 74.1487 32.385 74.2645 32.385C74.6121 32.5008 74.7279 32.6167 74.7279 33.0801C74.7279 33.4277 74.7279 33.7753 74.7279 35.629V37.1351C74.7279 38.4096 74.7279 39.4523 74.0328 40.0316C73.5694 40.495 72.8742 40.6109 72.4108 40.6109C71.9474 40.6109 71.3681 40.6109 70.9047 40.1474C70.3254 39.684 69.9778 38.9889 69.9778 37.251V35.629C69.9778 33.7753 69.9778 33.4277 69.9778 33.0801C69.9778 32.6167 70.0936 32.5008 70.4412 32.385C70.5571 32.385 70.6729 32.385 70.7888 32.385C70.9046 32.385 71.0205 32.385 71.0205 32.2691C71.0205 32.1533 70.9046 32.1533 70.7888 32.1533C70.3254 32.1533 69.5144 32.1533 69.1668 32.1533C68.8192 32.1533 68.0082 32.1533 67.3131 32.1533C67.0814 32.1533 67.0814 32.1533 67.0814 32.2691C67.0814 32.385 67.1972 32.385 67.3131 32.385C67.4289 32.385 67.6606 32.385 67.7765 32.385C68.1241 32.5008 68.2399 32.6167 68.3558 33.0801C68.3558 33.4277 68.3558 33.7753 68.3558 35.629V37.3669H68.2399ZM80.6367 41.306C81.3318 41.306 82.1428 41.1901 82.7221 40.8426C83.649 40.1474 83.9965 39.4523 83.9965 38.6413C83.9965 37.5986 83.5331 36.6717 81.9111 35.7449L81.4477 35.5131C80.2891 34.9339 80.1732 34.4704 80.1732 33.8911C80.1732 33.0801 80.9842 32.6167 81.7952 32.6167C82.6062 32.6167 82.9538 32.9643 83.1855 33.196C83.4172 33.5436 83.5331 33.8911 83.5331 34.007C83.5331 34.1229 83.5331 34.2387 83.6489 34.2387C83.7648 34.2387 83.7648 34.1229 83.7648 33.8911C83.7648 32.9643 83.7648 32.6167 83.7648 32.5008C83.7648 32.385 83.6489 32.385 83.6489 32.385C83.3014 32.2691 82.7221 32.1533 81.9111 32.1533C80.1732 32.1533 78.7829 33.0801 78.7829 34.5863C78.7829 35.629 79.2464 36.44 80.7525 37.251L81.4477 37.7144C82.4904 38.4096 82.6062 38.873 82.6062 39.4523C82.6062 40.2633 81.9111 40.9584 80.8684 40.9584C80.0574 40.9584 79.1305 40.6109 78.8988 39.7999C78.7829 39.5681 78.7829 39.3364 78.7829 39.2206C78.7829 39.1047 78.7829 38.9889 78.6671 38.9889C78.5512 38.9889 78.5512 39.1047 78.5512 39.3364C78.5512 39.5681 78.4354 40.2633 78.4354 40.9584C78.4354 41.1901 78.4354 41.306 78.6671 41.306C79.2464 41.306 79.9415 41.306 80.6367 41.306Z" fill="white"/>
<path id="Vector_11" d="M48.8917 78.4961C48.8917 78.9595 48.8917 79.3071 48.8917 79.5388C48.8917 79.6547 48.8917 79.7705 48.7758 79.7705H48.6599C48.7758 79.7705 48.8917 79.7705 49.0075 79.7705C49.1234 79.7705 49.2392 79.7705 49.2392 79.7705C49.3551 79.7705 49.4709 79.7705 49.5868 79.7705C49.7027 79.7705 49.8185 79.7705 49.9344 79.7705C50.8612 79.7705 51.2088 79.1913 51.2088 78.7278C51.2088 78.1485 50.7454 77.801 50.3978 77.6851C50.6295 77.4534 50.8612 77.2217 50.8612 76.8741C50.8612 76.6424 50.7454 76.179 49.8185 76.179C49.7027 76.179 49.4709 76.179 49.2392 76.179C49.1234 76.179 48.8917 76.179 48.5441 76.179C48.6599 76.179 48.6599 76.179 48.7758 76.179C48.8917 76.179 49.0075 76.2948 49.0075 76.4107C49.0075 76.5265 49.0075 76.6424 49.0075 77.4534V78.4961H48.8917ZM49.4709 76.5265C49.5868 76.4107 49.5868 76.4107 49.7027 76.4107C50.1661 76.4107 50.2819 76.8741 50.2819 77.1058C50.2819 77.3375 50.1661 77.4534 50.0502 77.5692C49.9344 77.801 49.8185 77.801 49.7027 77.801C49.5868 77.801 49.4709 77.801 49.4709 77.801V76.5265ZM50.5137 79.0754C50.5137 79.5388 50.1661 79.6547 49.9344 79.6547C49.8185 79.6547 49.7027 79.6547 49.5868 79.5388C49.4709 79.423 49.4709 79.423 49.4709 79.0754V77.9168H49.7027C49.9344 77.9168 50.0502 77.9168 50.0502 78.0327C50.3978 78.3802 50.5137 78.8437 50.5137 79.0754ZM55.2638 78.4961C55.2638 78.9595 55.2638 79.3071 55.2638 79.5388C55.2638 79.6547 55.2638 79.7705 55.1479 79.7705H55.0321C55.1479 79.7705 55.2638 79.7705 55.3797 79.7705C55.4955 79.7705 55.6114 79.7705 55.6114 79.7705C55.7272 79.7705 55.9589 79.7705 56.0748 79.7705C56.3065 79.7705 56.5382 79.7705 56.8858 79.7705C57.1175 79.7705 57.1175 79.7705 57.1175 79.6547C57.1175 79.5388 57.2334 79.1912 57.2334 79.0754V78.9595C57.2334 78.9595 57.2334 78.9595 57.2334 79.0754C57.2334 79.3071 57.1175 79.423 57.0017 79.423C56.8858 79.5388 56.6541 79.5388 56.5382 79.5388C56.0748 79.5388 55.9589 79.423 55.9589 79.1912C55.9589 79.0754 55.9589 78.612 55.9589 78.4961V78.1485C56.0748 78.1485 56.5382 78.1485 56.6541 78.1485C56.7699 78.1485 56.8858 78.2644 56.8858 78.3802C56.8858 78.3802 56.8858 78.1485 56.8858 78.0327C56.8858 77.801 56.8858 77.6851 56.8858 77.6851C56.8858 77.6851 56.8858 77.6851 56.7699 77.801C56.7699 77.801 56.6541 77.801 56.5382 77.9168C56.4224 77.9168 55.8431 77.9168 55.7272 77.9168V76.7582C55.8431 76.7582 56.3065 76.7582 56.4224 76.7582C56.6541 76.7582 56.6541 76.8741 56.7699 76.99V77.1058V77.2217C56.7699 77.2217 56.7699 76.99 56.7699 76.8741C56.7699 76.6424 56.7699 76.6424 56.7699 76.5265C56.7699 76.5265 56.7699 76.5265 56.6541 76.5265C56.6541 76.5265 56.5382 76.5265 56.4224 76.5265H55.2638C55.1479 76.5265 55.1479 76.5265 54.9162 76.5265H54.5687C54.6845 76.5265 54.6845 76.5265 54.8004 76.5265C54.9162 76.5265 55.0321 76.6424 55.0321 76.7582C55.0321 76.8741 55.0321 76.99 55.0321 77.801V78.4961H55.2638ZM61.2884 78.4961C61.2884 78.9595 61.2884 79.3071 61.2884 79.5388C61.2884 79.6547 61.2884 79.7705 61.1725 79.7705H61.0567C61.1725 79.7705 61.2884 79.7705 61.4042 79.7705C61.5201 79.7705 61.636 79.7705 61.636 79.7705C61.7518 79.7705 61.9835 79.7705 62.0994 79.7705C62.3311 79.7705 62.5628 79.7705 62.9104 79.7705C63.1421 79.7705 63.1421 79.7705 63.1421 79.6547C63.1421 79.5388 63.258 79.1912 63.258 79.0754V78.9595C63.258 78.9595 63.258 78.9595 63.258 79.0754C63.258 79.3071 63.1421 79.423 63.0262 79.423C62.9104 79.5388 62.6787 79.5388 62.5628 79.5388C62.0994 79.5388 61.9835 79.423 61.9835 79.1912V78.4961V78.1485C62.0994 78.1485 62.5628 78.1485 62.6787 78.1485C62.9104 78.1485 62.9104 78.2644 62.9104 78.3802C62.9104 78.3802 62.9104 78.1485 62.9104 78.0327C62.9104 77.801 62.9104 77.6851 62.9104 77.6851C62.9104 77.6851 62.9104 77.6851 62.7945 77.801C62.7945 77.801 62.6787 77.801 62.5628 77.9168C62.447 77.9168 61.8677 77.9168 61.7518 77.9168V76.7582C61.8677 76.7582 62.3311 76.7582 62.447 76.7582C62.6787 76.7582 62.6787 76.8741 62.7945 76.99V77.1058V77.2217C62.7945 77.2217 62.7945 76.99 62.7945 76.8741C62.7945 76.6424 62.7945 76.6424 62.7945 76.5265C62.7945 76.5265 62.7945 76.5265 62.6787 76.5265C62.6787 76.5265 62.5628 76.5265 62.447 76.5265H61.2884C61.1725 76.5265 61.0567 76.5265 60.9408 76.5265H60.5932C60.7091 76.5265 60.7091 76.5265 60.825 76.5265C60.9408 76.5265 61.0567 76.6424 61.0567 76.7582C61.0567 76.8741 61.0567 76.99 61.0567 77.801V78.4961H61.2884ZM68.0081 78.1485C68.124 78.1485 68.5874 78.1485 68.7032 78.1485C68.8191 78.1485 68.935 78.2644 68.935 78.2644V78.3802V78.4961C68.935 78.4961 68.935 78.4961 68.935 78.3802C68.935 78.2644 68.935 78.1485 68.935 78.0327C68.935 77.9168 68.935 77.801 68.935 77.6851C68.935 77.6851 68.935 77.6851 68.8191 77.6851C68.8191 77.801 68.7032 77.801 68.5874 77.801C68.4715 77.801 68.4715 77.801 68.3557 77.801H67.7764V76.6424V76.5265H68.4715C68.7032 76.5265 68.7032 76.6424 68.8191 76.6424C68.8191 76.7582 68.8191 76.7582 68.8191 76.8741V76.99C68.8191 76.99 68.8191 76.99 68.8191 76.8741V76.5265C68.8191 76.4107 68.8191 76.2948 68.8191 76.2948C68.8191 76.2948 68.8191 76.2948 68.7032 76.2948C68.7032 76.2948 68.5874 76.2948 68.4715 76.2948H67.1971C67.0812 76.2948 67.0812 76.2948 66.8495 76.2948H66.502C66.6178 76.2948 66.6178 76.2948 66.7337 76.2948C66.8495 76.2948 66.9654 76.4107 66.9654 76.5265C66.9654 76.6424 66.9654 76.7582 66.9654 77.5692V78.3802C66.9654 78.8437 66.9654 79.1912 66.9654 79.423C66.9654 79.5388 66.9654 79.6547 66.8495 79.6547H66.7337H66.6178C66.6178 79.6547 66.6178 79.6547 66.7337 79.6547C66.9654 79.6547 67.1971 79.6547 67.313 79.6547C67.4288 79.6547 67.7764 79.6547 68.0081 79.6547C67.8922 79.6547 67.8922 79.6547 67.7764 79.6547C67.6605 79.6547 67.6605 79.5388 67.5447 79.423C67.5447 79.1912 67.5447 78.8437 67.5447 78.3802V78.1485H68.0081Z" fill="#D7B46A"/>
<path id="Vector_12" fill-rule="evenodd" clip-rule="evenodd" d="M65.5751 66.0994C65.3434 66.447 64.1848 66.3311 63.8372 66.2153C63.7214 66.0994 63.6055 65.5201 63.4897 65.4043C62.9104 64.4774 63.7214 63.7823 63.0263 62.1603C62.3311 64.5933 63.4897 65.4043 63.6055 66.2153C63.0263 66.3311 62.0994 66.3311 61.636 66.0994C61.2884 64.7091 61.4042 65.2884 61.4042 64.4774C61.5201 63.3188 60.4774 59.148 60.4774 59.148C59.7822 58.8004 58.6237 59.0321 57.6968 59.0321C57.2334 59.0321 56.77 59.0321 56.3065 59.148C55.6114 59.3797 55.6114 59.2638 55.4955 59.4955C55.4955 59.4955 55.4955 59.6114 55.3797 59.7273C54.9162 59.6114 54.4528 59.2638 53.8735 59.0321C51.7881 58.2211 50.6295 56.9467 49.0075 57.0625C48.5441 57.9894 49.0075 58.8004 48.1965 59.4955C48.0807 59.6114 47.9648 59.4955 47.8489 59.7273C47.3855 60.8858 48.4282 63.4347 48.8917 64.5933C49.1234 65.1725 49.4709 65.4043 49.5868 65.9835C49.4709 66.2153 48.8917 66.2153 48.5441 66.0994C47.8489 66.0994 47.8489 66.2153 47.5014 65.8677C47.2697 65.2884 47.3855 65.2884 47.0379 65.0567C47.2697 64.3615 47.2697 64.4774 47.0379 63.6664C46.5745 62.2761 46.3428 62.1603 45.8794 61.1175C45.7635 60.77 45.6477 60.3065 45.4159 59.959C45.0684 60.77 44.6049 61.9285 44.3732 62.9713C43.9098 65.5201 44.6049 65.0567 44.9525 66.0994C44.8367 66.5628 43.3305 66.2153 43.2147 66.0994C42.8671 64.9408 42.7512 65.5201 42.8671 65.0567C42.9829 64.3615 42.9829 64.014 42.9829 63.3188C42.9829 61.9285 42.9829 61.2334 43.2147 59.959C42.7512 60.0748 42.7512 60.3065 42.4037 60.4224C41.9402 59.3797 41.8244 59.2638 41.9402 57.8735C42.0561 56.9467 42.1719 56.0198 42.2878 55.2088C42.6354 53.471 42.9829 51.7331 43.3305 49.9952C44.4891 44.4341 47.3855 46.5195 53.8735 47.2147C54.6845 47.3305 55.6114 47.5622 56.5382 47.5622C58.5078 47.6781 60.3615 47.5622 62.0994 46.983C62.5628 46.8671 64.069 46.4037 64.4165 46.172C65.1117 45.8244 65.3434 45.2451 66.3861 45.1292C67.5447 44.8975 68.124 45.2451 69.1667 45.2451C69.5143 45.2451 69.9777 45.0134 70.2094 44.7817C71.4838 43.8548 70.9045 43.8548 71.8314 44.55C72.4107 45.0134 73.1058 45.1292 73.801 46.2878C74.3803 47.2147 76.1181 48.0257 76.1181 48.8367C76.1181 49.3001 75.8864 49.3001 75.6547 49.5318C75.423 49.7635 75.423 49.9952 74.9595 50.1111C74.3803 50.227 74.4961 49.9952 74.0327 50.3428C71.368 52.0807 70.9045 49.3001 68.5874 55.6723C66.9654 60.1907 66.1544 59.148 65.691 60.0748C65.5751 60.5383 65.4593 61.581 65.3434 62.1603C65.1117 63.0871 65.1117 63.4347 65.1117 64.4774C64.7641 65.4043 65.2275 65.1725 65.5751 66.0994Z" fill="white"/>
<path id="Vector_13" d="M52.5992 101.088C52.5992 101.088 47.6173 94.7162 36.1474 93.4417C25.0251 91.4722 11.354 80.1181 7.41483 62.8554C3.01225 45.9402 9.26855 27.1714 17.6103 17.9028C25.952 8.28662 33.9461 6.20118 33.7144 6.08533C33.9461 6.31704 26.0679 8.63419 17.9578 18.2503C9.84783 27.5189 3.82325 46.0561 8.34169 62.5078C12.2808 79.3071 25.7203 90.0819 36.495 91.9356C39.0439 92.1673 41.361 92.6307 43.4464 93.3259C44.0257 93.5576 44.605 93.6734 45.1843 93.9052L50.5137 96.5699C52.9467 98.1919 54.1053 99.4663 54.1053 99.4663L52.5992 101.088Z" fill="#D7B46A"/>
<path id="Vector_14" d="M32.6716 82.8987C32.6716 82.8987 35.7998 83.8255 36.8425 86.6061C38.2328 90.0818 37.7694 93.0941 37.7694 93.0941C37.7694 93.0941 34.6412 91.4721 33.4826 89.6184C31.9765 87.0695 32.6716 82.8987 32.6716 82.8987Z" fill="#D7B46A"/>
<path id="Vector_15" d="M27.574 99.0029C27.574 99.0029 30.7021 99.8139 33.0193 98.0761C35.7998 95.7589 36.8426 92.9783 36.8426 92.9783C36.8426 92.9783 33.3668 92.6308 31.5131 93.6735C28.9643 95.0638 27.574 99.0029 27.574 99.0029Z" fill="#D7B46A"/>
<path id="Vector_16" d="M27.69 80.234C27.69 80.234 30.5864 81.7402 31.1657 84.6366C31.9767 88.2282 31.0498 91.1246 31.0498 91.1246C31.0498 91.1246 28.2693 88.9233 27.4583 86.9537C26.5314 84.1732 27.69 80.234 27.69 80.234Z" fill="#D7B46A"/>
<path id="Vector_17" d="M20.5068 94.9479C20.5068 94.9479 23.4033 96.3382 25.8363 95.0638C28.8486 93.4418 30.2388 90.777 30.2388 90.777C30.2388 90.777 26.9948 89.8502 25.0253 90.4295C22.4764 91.3563 20.5068 94.9479 20.5068 94.9479Z" fill="#D7B46A"/>
<path id="Vector_18" d="M23.2873 76.6425C23.2873 76.6425 25.8362 78.7279 25.952 81.6243C26.1837 85.3318 24.9093 87.8806 24.9093 87.8806C24.9093 87.8806 22.5921 85.2159 22.1287 83.1305C21.5494 80.234 23.2873 76.6425 23.2873 76.6425Z" fill="#D7B46A"/>
<path id="Vector_19" d="M14.2505 89.5026C14.2505 89.5026 16.7993 91.4722 19.3482 90.6612C22.4764 89.6185 24.2142 87.4172 24.2142 87.4172C24.2142 87.4172 21.2019 85.7952 19.3482 86.0269C16.5676 86.3745 14.2505 89.5026 14.2505 89.5026Z" fill="#D7B46A"/>
<path id="Vector_20" d="M19.4641 72.124C19.4641 72.124 21.5495 74.6729 21.3178 77.5693C20.9703 81.1609 19.3483 83.478 19.3483 83.478C19.3483 83.478 17.4945 80.4658 17.3787 78.2645C17.2628 75.2522 19.4641 72.124 19.4641 72.124Z" fill="#D7B46A"/>
<path id="Vector_21" d="M8.9209 82.8987C8.9209 82.8987 11.1222 85.3317 13.5552 84.9842C16.6833 84.6366 18.6529 82.7829 18.6529 82.7829C18.6529 82.7829 15.9882 80.6975 14.1345 80.4657C11.5856 80.3499 8.9209 82.8987 8.9209 82.8987Z" fill="#D7B46A"/>
<path id="Vector_22" d="M16.4516 66.9104C16.4516 66.9104 18.0736 69.8068 17.3785 72.5874C16.5675 76.0631 14.5979 77.9168 14.5979 77.9168C14.5979 77.9168 13.3235 74.557 13.4393 72.4716C13.9028 69.4593 16.4516 66.9104 16.4516 66.9104Z" fill="#D7B46A"/>
<path id="Vector_23" d="M4.75024 75.2521C4.75024 75.2521 6.4881 78.0327 8.92111 78.2644C11.9334 78.4961 14.1347 77.1058 14.1347 77.1058C14.1347 77.1058 11.9334 74.557 10.1955 73.9777C7.76253 73.2825 4.75024 75.2521 4.75024 75.2521Z" fill="#D7B46A"/>
<path id="Vector_24" d="M14.2505 61.1176C14.2505 61.1176 15.4091 64.2457 14.3663 66.7946C13.0919 70.0386 11.0065 71.5447 11.0065 71.5447C11.0065 71.5447 10.1955 68.069 10.7748 65.9836C11.4699 63.0871 14.2505 61.1176 14.2505 61.1176Z" fill="#D7B46A"/>
<path id="Vector_25" d="M1.85376 66.9104C1.85376 66.9104 3.12819 69.9227 5.44534 70.6178C8.34177 71.4288 10.6589 70.502 10.6589 70.502C10.6589 70.502 8.92105 67.4897 7.29905 66.6787C4.98191 65.636 1.85376 66.9104 1.85376 66.9104Z" fill="#D7B46A"/>
<path id="Vector_26" d="M12.976 54.9772C12.976 54.9772 13.5553 58.2212 12.2808 60.5383C10.543 63.4348 8.34168 64.4775 8.34168 64.4775C8.34168 64.4775 8.10996 60.77 8.92096 58.9163C9.96368 56.3675 12.976 54.9772 12.976 54.9772Z" fill="#D7B46A"/>
<path id="Vector_27" d="M0.231689 58.2212C0.231689 58.2212 0.926833 61.4652 3.12812 62.5079C5.67698 63.8982 8.10998 63.4348 8.10998 63.4348C8.10998 63.4348 6.83555 60.1908 5.44527 59.0322C3.47569 57.5261 0.231689 58.2212 0.231689 58.2212Z" fill="#D7B46A"/>
<path id="Vector_28" d="M12.7444 48.4891C12.7444 48.4891 12.8603 51.7331 11.2383 53.7027C9.15284 56.1357 6.83569 56.715 6.83569 56.715C6.83569 56.715 7.18327 53.2393 8.22598 51.5014C9.61627 49.3001 12.7444 48.4891 12.7444 48.4891Z" fill="#D7B46A"/>
<path id="Vector_29" d="M0 49.1843C0 49.1843 0.231714 52.4283 2.08543 53.9345C4.40258 55.7882 6.71972 55.7882 6.71972 55.7882C6.71972 55.7882 6.02458 52.4283 4.86601 51.038C3.12815 49.1843 0 49.1843 0 49.1843Z" fill="#D7B46A"/>
<path id="Vector_30" d="M13.3236 41.8853C13.3236 41.8853 12.976 45.1293 11.1223 46.7513C8.80518 48.7208 6.48804 48.8367 6.48804 48.8367C6.48804 48.8367 7.29904 45.4768 8.57347 44.0865C10.1955 42.0011 13.3236 41.8853 13.3236 41.8853Z" fill="#D7B46A"/>
<path id="Vector_31" d="M1.04261 40.0315C1.04261 40.0315 0.810899 43.2755 2.31704 45.1292C4.28662 47.4464 6.48791 47.9098 6.48791 47.9098C6.48791 47.9098 6.37205 44.4341 5.44519 42.9279C4.17076 40.6108 1.04261 40.0315 1.04261 40.0315Z" fill="#D7B46A"/>
<path id="Vector_32" d="M14.9457 35.2814C14.9457 35.2814 14.1347 38.2937 12.0492 39.5681C9.50036 41.0742 7.29907 40.7267 7.29907 40.7267C7.29907 40.7267 8.5735 37.5985 9.96379 36.4399C11.9334 34.8179 14.9457 35.2814 14.9457 35.2814Z" fill="#D7B46A"/>
<path id="Vector_33" d="M3.47562 31.1105C3.47562 31.1105 2.78047 34.2386 3.93905 36.3241C5.44519 38.9888 7.53062 39.7998 7.53062 39.7998C7.53062 39.7998 7.87819 36.4399 7.18305 34.702C6.37205 32.269 3.47562 31.1105 3.47562 31.1105Z" fill="#D7B46A"/>
<path id="Vector_34" d="M17.6104 29.141C17.6104 29.141 16.3359 31.9216 14.2505 32.7326C11.5858 33.6594 9.61621 32.8484 9.61621 32.8484C9.61621 32.8484 11.2382 30.0679 12.7444 29.2569C14.7139 28.0983 17.6104 29.141 17.6104 29.141Z" fill="#D7B46A"/>
<path id="Vector_35" d="M7.18307 22.7688C7.18307 22.7688 6.0245 25.6652 6.8355 27.8665C7.87821 30.763 9.73193 31.9215 9.73193 31.9215C9.73193 31.9215 10.5429 28.6775 10.1954 26.9397C9.73193 24.5067 7.18307 22.7688 7.18307 22.7688Z" fill="#D7B46A"/>
<path id="Vector_36" d="M21.086 23.5798C21.086 23.5798 19.464 26.1286 17.3785 26.3604C14.7138 26.7079 12.8601 25.5494 12.8601 25.5494C12.8601 25.5494 14.8297 23.2322 16.4517 22.6529C18.5371 21.9578 21.086 23.5798 21.086 23.5798Z" fill="#D7B46A"/>
<path id="Vector_37" d="M12.165 15.3539C12.165 15.3539 10.6588 17.9027 11.1223 20.3357C11.7015 23.348 13.3235 24.8542 13.3235 24.8542C13.3235 24.8542 14.598 21.8419 14.4821 20.104C14.2504 17.4393 12.165 15.3539 12.165 15.3539Z" fill="#D7B46A"/>
<path id="Vector_38" d="M25.257 18.7138C25.257 18.7138 23.4033 20.7993 21.3178 20.6834C18.6531 20.5676 17.147 19.0614 17.147 19.0614C17.147 19.0614 19.4641 17.2077 20.9703 16.976C23.0557 16.7443 25.257 18.7138 25.257 18.7138Z" fill="#D7B46A"/>
<path id="Vector_39" d="M17.9579 8.98181C17.9579 8.98181 16.1042 11.1831 16.2201 13.6161C16.3359 16.6284 17.6103 18.4821 17.6103 18.4821C17.6103 18.4821 19.2323 15.8174 19.4641 14.0795C19.6958 11.5307 17.9579 8.98181 17.9579 8.98181Z" fill="#D7B46A"/>
<path id="Vector_40" d="M30.1229 14.8906C30.1229 14.8906 28.0375 16.6284 26.0679 16.0491C23.6349 15.354 22.2446 13.6161 22.2446 13.6161C22.2446 13.6161 24.6776 12.2258 26.1838 12.3417C28.2692 12.4576 30.1229 14.8906 30.1229 14.8906Z" fill="#D7B46A"/>
<path id="Vector_41" d="M24.5616 3.88403C24.5616 3.88403 22.4762 5.62189 22.2445 8.0549C21.8969 11.0672 22.8238 13.0368 22.8238 13.0368C22.8238 13.0368 24.7933 10.8355 25.2568 9.09761C25.8361 6.66461 24.5616 3.88403 24.5616 3.88403Z" fill="#D7B46A"/>
<path id="Vector_42" d="M35.3364 11.9941C35.3364 11.9941 33.0192 13.2686 31.2814 12.3417C28.9642 11.1831 28.0374 9.21355 28.0374 9.21355C28.0374 9.21355 30.5862 8.28669 31.9765 8.75012C33.9461 9.32941 35.3364 11.9941 35.3364 11.9941Z" fill="#D7B46A"/>
<path id="Vector_43" d="M31.629 0.176636C31.629 0.176636 29.4277 1.45107 28.7325 3.76821C28.0374 6.54879 28.6167 8.75008 28.6167 8.75008C28.6167 8.75008 30.818 7.01222 31.5131 5.39021C32.44 3.18893 31.629 0.176636 31.629 0.176636Z" fill="#D7B46A"/>
<path id="Vector_44" d="M31.8608 7.01217C31.8608 7.01217 33.5987 7.93903 35.1048 7.24389C36.9586 6.31703 37.8854 4.81089 37.8854 4.81089C37.8854 4.81089 35.9158 3.99988 34.7573 4.34746C33.1353 4.81089 31.8608 7.01217 31.8608 7.01217Z" fill="#D7B46A"/>
<path id="Vector_45" d="M64.3008 101.088C64.3008 101.088 69.2827 94.7162 80.7526 93.4417C91.8749 91.4722 105.546 80.1181 109.485 62.9713C113.888 45.9402 107.631 27.1714 99.2897 18.0186C90.948 8.28662 83.0697 6.20118 83.1856 6.08533C82.9538 6.31704 90.8321 8.63419 98.9422 18.2503C107.052 27.5189 113.077 46.0561 108.558 62.5078C104.619 79.3071 91.1797 90.0819 80.405 91.9356C77.8561 92.1673 75.539 92.6307 73.4535 93.3259C72.8743 93.5576 72.295 93.6734 71.7157 93.9052L66.3863 96.5699C63.9532 98.1919 62.7947 99.4663 62.7947 99.4663L64.3008 101.088Z" fill="#D7B46A"/>
<path id="Vector_46" d="M84.344 82.8987C84.344 82.8987 81.2158 83.8255 80.1731 86.6061C78.7828 90.0818 79.2463 93.0941 79.2463 93.0941C79.2463 93.0941 82.3744 91.4721 83.533 89.6184C84.9233 87.0695 84.344 82.8987 84.344 82.8987Z" fill="#D7B46A"/>
<path id="Vector_47" d="M89.326 99.0029C89.326 99.0029 86.1978 99.8139 83.8807 98.0761C81.1001 95.7589 80.0574 92.9783 80.0574 92.9783C80.0574 92.9783 83.5331 92.6308 85.3868 93.6735C87.9357 95.0638 89.326 99.0029 89.326 99.0029Z" fill="#D7B46A"/>
<path id="Vector_48" d="M89.21 80.234C89.21 80.234 86.3136 81.7402 85.7343 84.6366C84.9233 88.2282 85.8501 91.1246 85.8501 91.1246C85.8501 91.1246 88.6307 88.9233 89.4417 86.9537C90.4844 84.1732 89.21 80.234 89.21 80.234Z" fill="#D7B46A"/>
<path id="Vector_49" d="M96.3931 94.9479C96.3931 94.9479 93.4967 96.3382 91.0637 95.0638C88.0514 93.4418 86.6611 90.777 86.6611 90.777C86.6611 90.777 89.9051 89.8502 91.8747 90.4295C94.5394 91.3563 96.3931 94.9479 96.3931 94.9479Z" fill="#D7B46A"/>
<path id="Vector_50" d="M93.6128 76.6425C93.6128 76.6425 91.0639 78.7279 90.9481 81.6243C90.7164 85.3318 91.9908 87.8806 91.9908 87.8806C91.9908 87.8806 94.3079 85.2159 94.7714 83.1305C95.4665 80.234 93.6128 76.6425 93.6128 76.6425Z" fill="#D7B46A"/>
<path id="Vector_51" d="M102.765 89.5026C102.765 89.5026 100.217 91.4722 97.6678 90.6612C94.5396 89.6185 92.8018 87.4172 92.8018 87.4172C92.8018 87.4172 95.8141 85.7952 97.6678 86.0269C100.332 86.3745 102.765 89.5026 102.765 89.5026Z" fill="#D7B46A"/>
<path id="Vector_52" d="M97.4359 72.124C97.4359 72.124 95.3505 74.6729 95.5822 77.5693C95.9298 81.1609 97.5517 83.478 97.5517 83.478C97.5517 83.478 99.4055 80.4658 99.5213 78.2645C99.6372 75.2522 97.4359 72.124 97.4359 72.124Z" fill="#D7B46A"/>
<path id="Vector_53" d="M107.979 82.8987C107.979 82.8987 105.778 85.3317 103.345 84.9842C100.217 84.6366 98.2471 82.7829 98.2471 82.7829C98.2471 82.7829 100.912 80.6975 102.765 80.4657C105.314 80.3499 107.979 82.8987 107.979 82.8987Z" fill="#D7B46A"/>
<path id="Vector_54" d="M100.448 66.9104C100.448 66.9104 98.8262 69.8068 99.5213 72.5874C100.332 76.0631 102.302 77.9168 102.302 77.9168C102.302 77.9168 103.576 74.557 103.46 72.4716C103.113 69.4593 100.448 66.9104 100.448 66.9104Z" fill="#D7B46A"/>
<path id="Vector_55" d="M112.266 75.2521C112.266 75.2521 110.528 78.0327 108.095 78.2644C104.967 78.4961 102.881 77.1058 102.881 77.1058C102.881 77.1058 105.083 74.557 106.82 73.9777C109.253 73.2825 112.266 75.2521 112.266 75.2521Z" fill="#D7B46A"/>
<path id="Vector_56" d="M102.649 61.1176C102.649 61.1176 101.491 64.2457 102.534 66.7946C103.808 70.0386 105.893 71.5447 105.893 71.5447C105.893 71.5447 106.704 68.069 106.125 65.9836C105.546 63.0871 102.649 61.1176 102.649 61.1176Z" fill="#D7B46A"/>
<path id="Vector_57" d="M115.162 66.9104C115.162 66.9104 113.888 69.9227 111.571 70.6178C108.674 71.4288 106.357 70.502 106.357 70.502C106.357 70.502 108.095 67.4897 109.717 66.6787C111.918 65.636 115.162 66.9104 115.162 66.9104Z" fill="#D7B46A"/>
<path id="Vector_58" d="M103.924 54.9772C103.924 54.9772 103.345 58.2212 104.735 60.5383C106.473 63.4348 108.674 64.4775 108.674 64.4775C108.674 64.4775 108.906 60.8859 108.095 59.0322C106.936 56.3675 103.924 54.9772 103.924 54.9772Z" fill="#D7B46A"/>
<path id="Vector_59" d="M116.668 58.2212C116.668 58.2212 115.973 61.4652 113.772 62.5079C111.223 63.8982 108.906 63.4348 108.906 63.4348C108.906 63.4348 110.18 60.1908 111.57 59.0322C113.54 57.5261 116.668 58.2212 116.668 58.2212Z" fill="#D7B46A"/>
<path id="Vector_60" d="M104.272 48.4891C104.272 48.4891 104.156 51.7331 105.778 53.7027C107.863 56.1357 110.18 56.715 110.18 56.715C110.18 56.715 109.833 53.2393 108.79 51.5014C107.4 49.3001 104.272 48.4891 104.272 48.4891Z" fill="#D7B46A"/>
<path id="Vector_61" d="M116.9 49.1843C116.9 49.1843 116.668 52.4283 114.814 53.9345C112.497 55.7882 110.18 55.7882 110.18 55.7882C110.18 55.7882 110.875 52.4283 112.034 51.038C113.772 49.1843 116.9 49.1843 116.9 49.1843Z" fill="#D7B46A"/>
<path id="Vector_62" d="M103.576 41.8853C103.576 41.8853 103.924 45.1293 105.778 46.7513C108.095 48.7208 110.412 48.8367 110.412 48.8367C110.412 48.8367 109.601 45.4768 108.327 44.0865C106.705 42.0011 103.576 41.8853 103.576 41.8853Z" fill="#D7B46A"/>
<path id="Vector_63" d="M115.857 40.0315C115.857 40.0315 116.089 43.2755 114.583 45.1292C112.613 47.4464 110.412 47.9098 110.412 47.9098C110.412 47.9098 110.528 44.4341 111.455 42.9279C112.845 40.6108 115.857 40.0315 115.857 40.0315Z" fill="#D7B46A"/>
<path id="Vector_64" d="M101.954 35.2814C101.954 35.2814 102.765 38.2937 104.851 39.5681C107.4 41.0742 109.601 40.7267 109.601 40.7267C109.601 40.7267 108.327 37.5985 106.936 36.4399C104.967 34.8179 101.954 35.2814 101.954 35.2814Z" fill="#D7B46A"/>
<path id="Vector_65" d="M113.424 31.1105C113.424 31.1105 114.12 34.2386 112.961 36.3241C111.455 38.9888 109.369 39.7998 109.369 39.7998C109.369 39.7998 109.022 36.4399 109.717 34.702C110.644 32.269 113.424 31.1105 113.424 31.1105Z" fill="#D7B46A"/>
<path id="Vector_66" d="M99.4055 29.141C99.4055 29.141 100.68 31.9216 102.765 32.7326C105.43 33.6594 107.4 32.8484 107.4 32.8484C107.4 32.8484 105.778 30.0679 104.272 29.2569C102.186 28.0983 99.4055 29.141 99.4055 29.141Z" fill="#D7B46A"/>
<path id="Vector_67" d="M109.717 22.7688C109.717 22.7688 110.875 25.6652 110.064 27.8665C109.022 30.763 107.168 31.9215 107.168 31.9215C107.168 31.9215 106.357 28.6775 106.705 26.9397C107.168 24.5067 109.717 22.7688 109.717 22.7688Z" fill="#D7B46A"/>
<path id="Vector_68" d="M95.9299 23.5798C95.9299 23.5798 97.5519 26.1286 99.6374 26.3604C102.302 26.7079 104.156 25.5494 104.156 25.5494C104.156 25.5494 102.186 23.2322 100.564 22.6529C98.3629 21.9578 95.9299 23.5798 95.9299 23.5798Z" fill="#D7B46A"/>
<path id="Vector_69" d="M104.851 15.3539C104.851 15.3539 106.357 17.9027 105.894 20.3357C105.314 23.348 103.692 24.8542 103.692 24.8542C103.692 24.8542 102.418 21.8419 102.534 20.104C102.65 17.4393 104.851 15.3539 104.851 15.3539Z" fill="#D7B46A"/>
<path id="Vector_70" d="M91.6431 18.7138C91.6431 18.7138 93.4968 20.7993 95.5822 20.6834C98.2469 20.5676 99.7531 19.0614 99.7531 19.0614C99.7531 19.0614 97.4359 17.2077 95.9298 16.976C93.8444 16.7443 91.6431 18.7138 91.6431 18.7138Z" fill="#D7B46A"/>
<path id="Vector_71" d="M99.0579 8.98181C99.0579 8.98181 100.912 11.1831 100.796 13.6161C100.68 16.6284 99.4054 18.4821 99.4054 18.4821C99.4054 18.4821 97.7834 15.8174 97.5517 14.0795C97.2041 11.5307 99.0579 8.98181 99.0579 8.98181Z" fill="#D7B46A"/>
<path id="Vector_72" d="M86.7771 14.8906C86.7771 14.8906 88.8625 16.6284 90.948 16.0491C93.381 15.354 94.7713 13.6161 94.7713 13.6161C94.7713 13.6161 92.3383 12.2258 90.8321 12.3417C88.6308 12.4576 86.7771 14.8906 86.7771 14.8906Z" fill="#D7B46A"/>
<path id="Vector_73" d="M92.454 3.88403C92.454 3.88403 94.5395 5.62189 94.7712 8.0549C95.1188 11.0672 94.1919 13.0368 94.1919 13.0368C94.1919 13.0368 92.2223 10.8355 91.7589 9.09761C91.1796 6.66461 92.454 3.88403 92.454 3.88403Z" fill="#D7B46A"/>
<path id="Vector_74" d="M81.6794 11.9941C81.6794 11.9941 83.9966 13.2686 85.7345 12.3417C88.0516 11.1831 88.9785 9.21355 88.9785 9.21355C88.9785 9.21355 86.4296 8.28669 85.0393 8.75012C82.9539 9.32941 81.6794 11.9941 81.6794 11.9941Z" fill="#D7B46A"/>
<path id="Vector_75" d="M85.3868 0.176636C85.3868 0.176636 87.5881 1.45107 88.1674 3.76821C88.8625 6.54879 88.2832 8.75008 88.2832 8.75008C88.2832 8.75008 86.082 7.01222 85.3868 5.39021C84.5758 3.18893 85.3868 0.176636 85.3868 0.176636Z" fill="#D7B46A"/>
<path id="Vector_76" d="M85.0392 7.01217C85.0392 7.01217 83.3014 7.93903 81.7952 7.24389C79.9415 6.31703 79.0146 4.81089 79.0146 4.81089C79.0146 4.81089 81.1001 3.99988 82.2587 4.34746C83.8807 4.81089 85.0392 7.01217 85.0392 7.01217Z" fill="#D7B46A"/>
</g>
<defs>
<clipPath id="clip0_675_1991">
<rect width="116.9" height="100.912" fill="white" transform="translate(0 0.176636)"/>
</clipPath>
</defs>
</svg>
