<svg width="25" height="25" viewBox="0 0 25 25" fill="none" xmlns="http://www.w3.org/2000/svg">
<path id="Vector" d="M6.97794 0.600342H17.0579C20.8979 0.600342 24.0179 3.72034 24.0179 7.56034V17.6403C24.0179 19.4862 23.2847 21.2566 21.9794 22.5618C20.6742 23.8671 18.9039 24.6003 17.0579 24.6003H6.97794C3.13794 24.6003 0.0179443 21.4803 0.0179443 17.6403V7.56034C0.0179443 5.71444 0.751228 3.94413 2.05648 2.63888C3.36173 1.33363 5.13204 0.600342 6.97794 0.600342ZM6.73794 3.00034C5.59221 3.00034 4.4934 3.45548 3.68324 4.26564C2.87309 5.0758 2.41794 6.17461 2.41794 7.32034V17.8803C2.41794 20.2683 4.34994 22.2003 6.73794 22.2003H17.2979C18.4437 22.2003 19.5425 21.7452 20.3526 20.935C21.1628 20.1249 21.6179 19.0261 21.6179 17.8803V7.32034C21.6179 4.93234 19.6859 3.00034 17.2979 3.00034H6.73794ZM18.3179 4.80034C18.7158 4.80034 19.0973 4.95838 19.3786 5.23968C19.6599 5.52099 19.8179 5.90252 19.8179 6.30034C19.8179 6.69817 19.6599 7.0797 19.3786 7.361C19.0973 7.64231 18.7158 7.80034 18.3179 7.80034C17.9201 7.80034 17.5386 7.64231 17.2573 7.361C16.976 7.0797 16.8179 6.69817 16.8179 6.30034C16.8179 5.90252 16.976 5.52099 17.2573 5.23968C17.5386 4.95838 17.9201 4.80034 18.3179 4.80034ZM12.0179 6.60034C13.6092 6.60034 15.1354 7.23248 16.2606 8.3577C17.3858 9.48292 18.0179 11.009 18.0179 12.6003C18.0179 14.1916 17.3858 15.7178 16.2606 16.843C15.1354 17.9682 13.6092 18.6003 12.0179 18.6003C10.4266 18.6003 8.90052 17.9682 7.7753 16.843C6.65009 15.7178 6.01794 14.1916 6.01794 12.6003C6.01794 11.009 6.65009 9.48292 7.7753 8.3577C8.90052 7.23248 10.4266 6.60034 12.0179 6.60034ZM12.0179 9.00034C11.0632 9.00034 10.1475 9.37963 9.47236 10.0548C8.79723 10.7299 8.41794 11.6456 8.41794 12.6003C8.41794 13.5551 8.79723 14.4708 9.47236 15.1459C10.1475 15.8211 11.0632 16.2003 12.0179 16.2003C12.9727 16.2003 13.8884 15.8211 14.5635 15.1459C15.2387 14.4708 15.6179 13.5551 15.6179 12.6003C15.6179 11.6456 15.2387 10.7299 14.5635 10.0548C13.8884 9.37963 12.9727 9.00034 12.0179 9.00034Z" fill="#D5B16C"/>
</svg>
