<svg width="41" height="41" viewBox="0 0 41 41" fill="none" xmlns="http://www.w3.org/2000/svg">
<g id="location_on">
<mask id="mask0_429_269" style="mask-type:alpha" maskUnits="userSpaceOnUse" x="0" y="0" width="41" height="41">
<rect id="Bounding box" x="0.5" y="0.184082" width="40" height="40" fill="#D9D9D9"/>
</mask>
<g mask="url(#mask0_429_269)">
<path id="location_on_2" d="M20.5 20.184C21.4166 20.184 22.2013 19.8576 22.8541 19.2048C23.5069 18.5521 23.8333 17.7673 23.8333 16.8507C23.8333 15.934 23.5069 15.1493 22.8541 14.4965C22.2013 13.8437 21.4166 13.5173 20.5 13.5173C19.5833 13.5173 18.7986 13.8437 18.1458 14.4965C17.493 15.1493 17.1666 15.934 17.1666 16.8507C17.1666 17.7673 17.493 18.5521 18.1458 19.2048C18.7986 19.8576 19.5833 20.184 20.5 20.184ZM20.5 36.8507C16.0277 33.0451 12.6875 29.5104 10.4791 26.2465C8.27079 22.9826 7.16663 19.9618 7.16663 17.184C7.16663 13.0173 8.5069 9.69789 11.1875 7.22567C13.868 4.75345 16.9722 3.51733 20.5 3.51733C24.0277 3.51733 27.1319 4.75345 29.8125 7.22567C32.493 9.69789 33.8333 13.0173 33.8333 17.184C33.8333 19.9618 32.7291 22.9826 30.5208 26.2465C28.3125 29.5104 24.9722 33.0451 20.5 36.8507Z" fill="#E40E20"/>
</g>
</g>
</svg>
