<svg width="157" height="81" viewBox="0 0 157 81" fill="none" xmlns="http://www.w3.org/2000/svg">
<g id="Logo">
<g id="Vector">
<path d="M39.9762 39.6585L40.2967 39.5908H66.9518L76.9677 49.6067H49.9247L39.9762 39.6585Z" fill="#4C4C4C"/>
<path d="M31.3951 39.5906L4.35193 39.5908L14.3679 49.6067H31.3948L31.3951 39.5906Z" fill="#4C4C4C"/>
<path d="M86.2753 10.8192H90.429V23.7262H97.5633V27.2229H86.2753V10.8192Z" fill="#4C4C4C"/>
<path d="M105.105 27.5748C103.712 27.5748 102.492 27.3245 101.443 26.8238C100.395 26.3076 99.5818 25.6037 99.0029 24.7118C98.4395 23.8045 98.1579 22.7641 98.1579 21.5906C98.1579 20.4173 98.4395 19.3847 99.0029 18.493C99.5818 17.5856 100.395 16.8816 101.443 16.381C102.492 15.8646 103.712 15.6065 105.105 15.6065C106.497 15.6065 107.718 15.8646 108.766 16.381C109.814 16.8816 110.62 17.5856 111.183 18.493C111.762 19.3847 112.051 20.4173 112.051 21.5906C112.051 22.7641 111.762 23.8045 111.183 24.7118C110.62 25.6037 109.814 26.3076 108.766 26.8238C107.718 27.3245 106.497 27.5748 105.105 27.5748ZM105.105 24.3599C105.934 24.3599 106.591 24.1173 107.076 23.6324C107.576 23.1317 107.827 22.4512 107.827 21.5906C107.827 20.7302 107.576 20.0575 107.076 19.5724C106.591 19.0718 105.934 18.8216 105.105 18.8216C104.275 18.8216 103.611 19.0718 103.11 19.5724C102.625 20.0575 102.383 20.7302 102.383 21.5906C102.383 22.4512 102.625 23.1317 103.11 23.6324C103.611 24.1173 104.275 24.3599 105.105 24.3599Z" fill="#4C4C4C"/>
<path d="M119.809 32.6203C119.058 32.6203 118.3 32.55 117.532 32.4091C116.782 32.2684 116.133 32.0805 115.586 31.8459V28.9829C116.821 29.5148 118.229 29.7809 119.809 29.7809C120.951 29.7809 121.773 29.5461 122.273 29.0767C122.789 28.6074 123.047 27.9192 123.047 27.0116V26.331C122.594 26.7221 122.031 27.0273 121.359 27.2463C120.701 27.4654 119.997 27.5748 119.246 27.5748C118.058 27.5748 117.008 27.3245 116.102 26.8238C115.194 26.3234 114.483 25.6192 113.965 24.7118C113.465 23.8045 113.215 22.7641 113.215 21.5906C113.215 20.4017 113.465 19.3534 113.965 18.4461C114.467 17.5387 115.17 16.8425 116.078 16.3575C116.985 15.8569 118.026 15.6065 119.199 15.6065C120.811 15.6065 122.141 16.0994 123.189 17.0849V15.9585H127.178V26.4485C127.178 28.4041 126.576 29.9216 125.371 31.0011C124.182 32.0805 122.328 32.6203 119.809 32.6203ZM120.278 24.3833C120.92 24.3833 121.491 24.219 121.992 23.8905C122.492 23.5619 122.844 23.124 123.047 22.5763V20.6052C122.829 20.0575 122.468 19.6273 121.968 19.3144C121.468 18.9858 120.904 18.8216 120.278 18.8216C119.434 18.8216 118.753 19.0718 118.237 19.5724C117.721 20.0575 117.463 20.7225 117.463 21.5672C117.463 22.4277 117.721 23.1161 118.237 23.6324C118.753 24.133 119.434 24.3833 120.278 24.3833Z" fill="#4C4C4C"/>
<path d="M135.172 27.5748C133.78 27.5748 132.559 27.3245 131.511 26.8238C130.463 26.3076 129.65 25.6037 129.071 24.7118C128.507 23.8045 128.226 22.7641 128.226 21.5906C128.226 20.4173 128.507 19.3847 129.071 18.493C129.65 17.5856 130.463 16.8816 131.511 16.381C132.559 15.8646 133.78 15.6065 135.172 15.6065C136.565 15.6065 137.784 15.8646 138.833 16.381C139.882 16.8816 140.687 17.5856 141.25 18.493C141.829 19.3847 142.119 20.4173 142.119 21.5906C142.119 22.7641 141.829 23.8045 141.25 24.7118C140.687 25.6037 139.882 26.3076 138.833 26.8238C137.784 27.3245 136.565 27.5748 135.172 27.5748ZM135.172 24.3599C136.001 24.3599 136.658 24.1173 137.144 23.6324C137.644 23.1317 137.894 22.4512 137.894 21.5906C137.894 20.7302 137.644 20.0575 137.144 19.5724C136.658 19.0718 136.001 18.8216 135.172 18.8216C134.343 18.8216 133.678 19.0718 133.177 19.5724C132.692 20.0575 132.45 20.7302 132.45 21.5906C132.45 22.4512 132.692 23.1317 133.177 23.6324C133.678 24.1173 134.343 24.3599 135.172 24.3599Z" fill="#4C4C4C"/>
<path d="M86.2753 33.2603H90.429V49.664H86.2753V33.2603Z" fill="#4C4C4C"/>
<path d="M92.5318 38.3997H96.5209V39.5261C97.5689 38.5406 98.8997 38.0478 100.511 38.0478C101.683 38.0478 102.725 38.298 103.631 38.7988C104.539 39.2837 105.243 39.9798 105.744 40.8872C106.245 41.7789 106.495 42.8194 106.495 44.0084C106.495 45.1817 106.245 46.2299 105.744 47.153C105.243 48.0603 104.539 48.7645 103.631 49.2649C102.74 49.7657 101.699 50.016 100.511 50.016C99.7592 50.016 99.04 49.8986 98.3521 49.664C97.6788 49.445 97.1157 49.1399 96.6624 48.7487V54.8034H92.5318V38.3997ZM99.4316 46.801C100.276 46.801 100.956 46.5507 101.473 46.05C101.989 45.5494 102.247 44.8688 102.247 44.0084C102.247 43.148 101.989 42.4752 101.473 41.9902C100.956 41.4896 100.276 41.2393 99.4316 41.2393C98.8055 41.2393 98.2422 41.4036 97.7418 41.7321C97.2412 42.0449 96.881 42.4752 96.6624 43.0227V45.0174C96.881 45.5651 97.2412 46.003 97.7418 46.3316C98.2422 46.6446 98.8055 46.801 99.4316 46.801Z" fill="#4C4C4C"/>
<path d="M112.653 50.016C111.745 50.016 110.798 49.922 109.813 49.7344C108.828 49.5623 108.044 49.3121 107.466 48.9835V45.9563C108.107 46.3316 108.874 46.6446 109.766 46.8949C110.673 47.1296 111.502 47.2469 112.253 47.2469C112.801 47.2469 113.2 47.2077 113.45 47.1296C113.701 47.0513 113.825 46.8949 113.825 46.6601C113.825 46.4725 113.74 46.3238 113.567 46.2144C113.411 46.0892 113.114 45.964 112.676 45.8388C112.253 45.6981 111.761 45.5494 111.197 45.3929C110.242 45.1113 109.492 44.8218 108.944 44.5246C108.397 44.2274 107.99 43.852 107.724 43.3982C107.459 42.9446 107.325 42.3734 107.325 41.685C107.325 40.4649 107.802 39.5574 108.757 38.963C109.726 38.3528 111.049 38.0478 112.722 38.0478C113.536 38.0478 114.388 38.1338 115.281 38.3058C116.188 38.478 116.868 38.7049 117.323 38.9864V41.9668C116.852 41.6539 116.227 41.3957 115.445 41.1923C114.678 40.989 113.959 40.8872 113.285 40.8872C112.754 40.8872 112.34 40.9419 112.042 41.0515C111.745 41.1454 111.597 41.3176 111.597 41.5678C111.597 41.8025 111.745 41.9824 112.042 42.1075C112.34 42.2327 112.871 42.3892 113.638 42.5769C114.138 42.7019 114.35 42.7568 114.272 42.7412C115.273 43.0071 116.047 43.3043 116.594 43.6329C117.142 43.9616 117.526 44.3526 117.744 44.8063C117.979 45.2443 118.097 45.8075 118.097 46.4959C118.097 47.5754 117.628 48.436 116.689 49.0773C115.765 49.7031 114.42 50.016 112.653 50.016Z" fill="#4C4C4C"/>
<path d="M124.264 50.016C122.715 50.016 121.55 49.5857 120.767 48.7253C120.001 47.8648 119.617 46.7307 119.617 45.3226V38.3997H123.748V44.8531C123.748 46.1517 124.334 46.801 125.507 46.801C126.04 46.801 126.525 46.6758 126.962 46.4255C127.401 46.1752 127.76 45.8075 128.042 45.3226V38.3997H132.172V49.664H128.183V48.4436C127.698 48.96 127.112 49.3511 126.423 49.6171C125.735 49.883 125.014 50.016 124.264 50.016Z" fill="#4C4C4C"/>
<path d="M134.287 38.3997H138.112V39.62C138.581 39.1194 139.121 38.7362 139.731 38.4701C140.342 38.1885 140.991 38.0478 141.679 38.0478C142.524 38.0478 143.197 38.1728 143.698 38.4231C144.214 38.6735 144.628 39.0489 144.941 39.5496C145.41 39.0802 145.981 38.7126 146.654 38.4467C147.326 38.1807 148.008 38.0478 148.695 38.0478C150.182 38.0478 151.238 38.431 151.864 39.1975C152.49 39.9485 152.803 41.0358 152.803 42.4596V49.664H148.86V43.0463C148.86 42.4205 148.742 41.9668 148.508 41.685C148.274 41.4036 147.882 41.2627 147.334 41.2627C146.631 41.2627 146.06 41.5131 145.622 42.0135C145.638 42.2796 145.646 42.6865 145.646 43.234V49.664H141.703V42.882C141.703 42.303 141.601 41.8885 141.397 41.6382C141.194 41.3879 140.834 41.2627 140.318 41.2627C139.52 41.2627 138.831 41.7086 138.254 42.6003V49.664H134.287V38.3997Z" fill="#4C4C4C"/>
<path d="M40.2967 39.5908L39.9762 39.6585L49.9247 49.6067L49.9244 76.6497H41.4108L31.3948 66.6338H39.9084V39.5906H31.3951L31.3948 31.0773H39.9084V4.03412L49.9244 14.0501V31.0771L39.9084 31.0773V39.5906L40.2967 39.5908Z" fill="#4C4C4C"/>
<path d="M66.9518 39.5908L76.9677 49.6067L76.9679 41.0931L66.9519 31.0771L66.9518 39.5908Z" fill="#4C4C4C"/>
<path d="M86.8622 57.3638H92.9401C94.6608 57.3638 95.9982 57.7707 96.9532 58.5843C97.9225 59.3977 98.4084 60.6023 98.4084 62.1981C98.4084 63.8095 97.9304 65.0143 96.9767 65.8123C96.0217 66.6101 94.6764 67.009 92.9401 67.009H88.6926V73.7676H86.8622V57.3638ZM92.7994 65.4602C93.9729 65.4602 94.8964 65.2255 95.5685 64.7561C96.2417 64.2712 96.5772 63.4185 96.5772 62.1981C96.5772 60.9622 96.2417 60.1095 95.5685 59.6403C94.8964 59.1552 93.9729 58.9128 92.7994 58.9128H88.6926V65.4602H92.7994Z" fill="#4C4C4C"/>
<path d="M100.75 56.4252H102.557V73.7676H100.75V56.4252Z" fill="#4C4C4C"/>
<path d="M110.391 74.1197C108.888 74.1197 107.73 73.7129 106.917 72.8992C106.119 72.0858 105.721 70.9985 105.721 69.6373V62.5033H107.527V69.7313C107.527 71.7025 108.552 72.6882 110.602 72.6882C111.462 72.6882 112.213 72.5003 112.855 72.125C113.511 71.7493 114.098 71.1548 114.614 70.3414V62.5033H116.422V73.7676H114.661V72.0779C113.645 73.439 112.221 74.1197 110.391 74.1197Z" fill="#4C4C4C"/>
<path d="M123.622 74.1197C122.886 74.1197 122.096 74.0101 121.251 73.7911C120.406 73.5876 119.75 73.3296 119.28 73.0165V71.4913C119.874 71.8512 120.556 72.1405 121.322 72.3595C122.104 72.5786 122.855 72.688 123.575 72.688C124.544 72.688 125.241 72.555 125.663 72.2891C126.102 72.0075 126.321 71.593 126.321 71.0454C126.321 70.623 126.226 70.2944 126.039 70.0598C125.85 69.8094 125.539 69.5904 125.1 69.4027C124.662 69.2149 123.981 68.9959 123.059 68.7456C122.151 68.4953 121.424 68.2371 120.876 67.9712C120.345 67.6895 119.937 67.3375 119.656 66.9151C119.374 66.4928 119.234 65.953 119.234 65.2959C119.234 64.279 119.64 63.5045 120.453 62.9727C121.283 62.425 122.378 62.1513 123.739 62.1513C124.474 62.1513 125.163 62.2217 125.804 62.3624C126.461 62.4876 127.008 62.6675 127.447 62.9023V64.4276C126.993 64.1773 126.445 63.9817 125.804 63.8408C125.163 63.6845 124.497 63.6062 123.809 63.6062C122.902 63.6062 122.214 63.7392 121.744 64.0051C121.275 64.2712 121.04 64.7014 121.04 65.2959C121.04 65.7027 121.119 66.0156 121.275 66.2346C121.448 66.4535 121.752 66.657 122.19 66.8447C122.644 67.0169 123.364 67.2359 124.349 67.5018C125.757 67.893 126.735 68.3545 127.282 68.8865C127.845 69.4027 128.127 70.1224 128.127 71.0454C128.127 71.9996 127.752 72.7506 127.001 73.2983C126.266 73.8458 125.139 74.1197 123.622 74.1197Z" fill="#4C4C4C"/>
</g>
</g>
</svg>
