<svg width="166" height="44" viewBox="0 0 166 44" fill="none" xmlns="http://www.w3.org/2000/svg">
<g id="Logo">
<g id="Vector">
<path d="M49.3262 14.4085H53.3397V30.6364H49.3262V14.4085ZM54.9317 24.5091C54.9317 20.4956 57.3933 18.1009 61.1928 18.1009C64.9923 18.1009 67.4539 20.4956 67.4539 24.5091C67.4539 28.5226 65.0458 30.9307 61.1928 30.9307C57.3398 30.9307 54.9317 28.5895 54.9317 24.5091ZM63.427 24.5091C63.427 22.3017 62.5574 21.004 61.1928 21.004C59.8282 21.004 58.972 22.3418 58.972 24.5091C58.972 26.6764 59.8148 27.9875 61.1928 27.9875C62.5708 27.9875 63.427 26.7567 63.427 24.5225V24.5091ZM68.9656 31.4258H72.8186C73.002 31.8331 73.312 32.1704 73.7025 32.3874C74.093 32.6043 74.5432 32.6893 74.9859 32.6298C76.511 32.6298 77.3138 31.8003 77.3138 30.5963V28.3487H77.2335C76.9137 29.0376 76.3948 29.6147 75.7438 30.0059C75.0928 30.397 74.3395 30.584 73.5812 30.5428C70.6513 30.5428 68.7115 28.3086 68.7115 24.469C68.7115 20.6294 70.5577 18.2079 73.6347 18.2079C74.4168 18.1773 75.1895 18.3864 75.8495 18.8071C76.5094 19.228 77.025 19.8405 77.3271 20.5625V18.3283H81.3406V30.5026C81.3406 33.4325 78.7586 35.252 74.9458 35.252C71.4005 35.252 69.1931 33.6599 68.9656 31.4391V31.4258ZM77.3271 24.4958C77.3271 22.5425 76.4308 21.3117 75.0127 21.3117C73.5946 21.3117 72.725 22.5291 72.725 24.4958C72.725 26.4624 73.5812 27.5728 75.0127 27.5728C76.4442 27.5728 77.3271 26.4891 77.3271 24.5091V24.4958ZM82.8524 24.4958C82.8524 20.4822 85.314 18.0875 89.1135 18.0875C92.9129 18.0875 95.3879 20.4822 95.3879 24.4958C95.3879 28.5093 92.9798 30.9174 89.1135 30.9174C85.2471 30.9174 82.8524 28.5895 82.8524 24.5091V24.4958ZM91.3477 24.4958C91.3477 22.2883 90.4781 20.9906 89.1135 20.9906C87.7489 20.9906 86.9596 22.3418 86.9596 24.5225C86.9596 26.7032 87.8024 28.0009 89.167 28.0009C90.5316 28.0009 91.3477 26.7567 91.3477 24.5225V24.4958ZM96.9131 15.4118C96.9025 15.0066 97.0126 14.6074 97.2292 14.2648C97.4459 13.9222 97.7594 13.6516 98.13 13.4874C98.5005 13.3231 98.9115 13.2726 99.3109 13.3423C99.7102 13.4119 100.08 13.5986 100.373 13.8785C100.666 14.1585 100.87 14.5192 100.957 14.915C101.045 15.3107 101.014 15.7235 100.867 16.1014C100.72 16.479 100.464 16.8047 100.131 17.0368C99.7992 17.2689 99.4053 17.3972 99.0001 17.4052C98.7315 17.4237 98.4619 17.3863 98.2084 17.2956C97.9547 17.2049 97.7227 17.0629 97.5267 16.8781C97.3307 16.6935 97.175 16.4702 97.0695 16.2224C96.9638 15.9748 96.9105 15.7079 96.9131 15.4386V15.4118ZM96.9131 18.3551H100.927V30.6364H96.9131V18.3551ZM115.496 24.4958C115.496 28.5093 113.716 30.797 110.666 30.797C109.884 30.8471 109.105 30.656 108.435 30.2493C107.765 29.8424 107.236 29.2397 106.92 28.5226H106.84V34.5697H102.826V18.3283H106.84V20.5224H106.92C107.222 19.7934 107.74 19.175 108.406 18.7513C109.071 18.3276 109.851 18.1192 110.639 18.1544C113.716 18.2079 115.549 20.509 115.549 24.5225L115.496 24.4958ZM111.482 24.4958C111.482 22.5425 110.586 21.2983 109.181 21.2983C107.776 21.2983 106.88 22.5559 106.867 24.4958C106.853 26.4356 107.776 27.6798 109.181 27.6798C110.586 27.6798 111.482 26.4624 111.482 24.5225V24.4958ZM122.386 18.0741C125.717 18.0741 127.737 19.6528 127.831 22.1813H124.178C124.178 21.3117 123.456 20.7632 122.345 20.7632C121.235 20.7632 120.74 21.1913 120.74 21.8201C120.74 22.4489 121.181 22.6495 122.078 22.8368L124.646 23.3586C127.095 23.8803 128.138 24.8703 128.138 26.7299C128.138 29.2718 125.824 30.904 122.412 30.904C119.001 30.904 116.767 29.2718 116.593 26.7701H120.459C120.579 27.6798 121.302 28.2149 122.479 28.2149C123.656 28.2149 124.192 27.827 124.192 27.1848C124.192 26.5426 123.817 26.4089 122.854 26.2082L120.539 25.7132C118.145 25.2182 116.887 23.9472 116.887 22.0743C116.914 19.6662 119.068 18.1009 122.386 18.1009V18.0741ZM141.53 30.6097H137.664V28.322H137.583C137.371 29.09 136.902 29.7623 136.255 30.2272C135.607 30.6919 134.821 30.9214 134.025 30.8772C133.415 30.9119 132.805 30.8153 132.236 30.5939C131.666 30.3725 131.151 30.0316 130.725 29.594C130.299 29.1565 129.972 28.6325 129.766 28.0576C129.559 27.4827 129.479 26.8703 129.53 26.2617V18.3283H133.543V25.3386C133.543 26.7968 134.292 27.5728 135.536 27.5728C135.828 27.5733 136.117 27.5116 136.383 27.3916C136.648 27.2716 136.886 27.0961 137.079 26.877C137.27 26.6577 137.415 26.3999 137.499 26.1208C137.583 25.8416 137.609 25.5476 137.57 25.2583V18.3283H141.583L141.53 30.6097ZM143.47 18.3283H147.35V20.6963H147.43C147.643 19.9384 148.101 19.2724 148.733 18.8028C149.364 18.3333 150.135 18.0863 150.922 18.1009C151.723 18.0368 152.518 18.2764 153.15 18.7722C153.782 19.268 154.205 19.9835 154.333 20.7766H154.413C154.656 19.9751 155.159 19.2772 155.842 18.7928C156.524 18.3084 157.35 18.0649 158.186 18.1009C158.732 18.0826 159.275 18.1793 159.781 18.3848C160.288 18.5901 160.744 18.8998 161.123 19.2934C161.501 19.6872 161.793 20.1561 161.979 20.6697C162.163 21.1833 162.24 21.7303 162.2 22.2749V30.6364H158.186V23.3452C158.186 22.0074 157.584 21.392 156.46 21.392C156.21 21.3898 155.961 21.4415 155.732 21.5434C155.504 21.6454 155.299 21.7952 155.133 21.9829C154.967 22.1706 154.843 22.3916 154.769 22.6312C154.696 22.8709 154.676 23.1235 154.708 23.372V30.6364H150.895V23.2917C150.895 22.0609 150.293 21.392 149.196 21.392C148.943 21.3921 148.691 21.4459 148.461 21.5498C148.23 21.6539 148.022 21.8058 147.855 21.9953C147.687 22.1849 147.561 22.4081 147.485 22.6501C147.41 22.8919 147.386 23.1471 147.416 23.3987V30.6364H143.403L143.47 18.3283Z" fill="#4C4C4C"/>
<path d="M38.1017 15.1443C37.4209 13.5875 36.5199 12.1367 35.426 10.8364C33.8093 8.85688 31.7915 7.24218 29.5057 6.09861C27.2199 4.95505 24.7177 4.30854 22.1641 4.20163C19.6104 4.09473 17.063 4.52984 14.6896 5.47837C12.3162 6.42689 10.1706 7.8673 8.39397 9.70479C6.61734 11.5423 5.25001 13.7352 4.38195 16.1392C3.51389 18.5432 3.16479 21.1038 3.35762 23.6524C3.55047 26.2011 4.28086 28.68 5.50076 30.9259C6.72065 33.172 8.40238 35.1342 10.4353 36.6835C11.7396 37.6974 13.181 38.5216 14.7163 39.1317C16.8689 40.0139 19.1728 40.4682 21.4992 40.4695C26.3012 40.459 30.9031 38.5448 34.2962 35.1467C37.6893 31.7486 39.5966 27.1439 39.6001 22.3418C39.6036 19.8648 39.0935 17.414 38.1017 15.1443ZM21.4858 7.87979C23.5749 7.87958 25.6388 8.33618 27.5328 9.21763C27.071 9.41719 26.5854 9.55658 26.0879 9.63237C24.4512 9.86929 22.9351 10.6292 21.7657 11.7986C20.5963 12.9679 19.8364 14.4842 19.5994 16.1209C19.4955 17.0388 19.0779 17.8927 18.4174 18.5386C17.757 19.1845 16.8939 19.5827 15.9739 19.6662C14.3372 19.9031 12.821 20.663 11.6516 21.8324C10.4822 23.0018 9.72231 24.518 9.48539 26.1547C9.40517 27.0275 9.03278 27.8477 8.4285 28.4825C7.38585 26.2795 6.91747 23.8484 7.06694 21.4156C7.2164 18.9829 7.97885 16.6275 9.28333 14.5686C10.5878 12.5098 12.3919 10.8144 14.5278 9.64018C16.6637 8.466 19.0619 7.85123 21.4992 7.85303L21.4858 7.87979ZM10.4219 31.7067C10.5824 31.5595 10.743 31.4258 10.9035 31.2652C12.0937 30.1113 12.8577 28.5881 13.0708 26.944C13.1572 26.0198 13.5698 25.1566 14.2347 24.5091C14.8746 23.8432 15.7358 23.4339 16.6562 23.3586C18.2929 23.1217 19.8091 22.3618 20.9785 21.1924C22.1479 20.023 22.9078 18.5068 23.1447 16.8701C23.2026 15.9035 23.6174 14.9928 24.3086 14.3148C24.9643 13.6617 25.8336 13.2674 26.7569 13.2044C28.2605 12.9975 29.6628 12.3291 30.7704 11.2913C32.0316 12.3376 33.1 13.5962 33.9277 15.0105C33.8768 15.0791 33.8185 15.142 33.7538 15.1978C33.1152 15.8696 32.2551 16.2878 31.3323 16.3751C29.6938 16.6079 28.1754 17.3664 27.0052 18.5365C25.8351 19.7067 25.0765 21.2251 24.8438 22.8636C24.7494 23.7846 24.3397 24.6446 23.6838 25.298C23.0279 25.9516 22.1663 26.3582 21.245 26.449C19.6034 26.6841 18.0817 27.4425 16.9054 28.6113C15.7293 29.7803 14.9615 31.2975 14.7163 32.9375C14.6443 33.5913 14.4197 34.2192 14.0608 34.7703C12.6882 33.9553 11.4588 32.9204 10.4219 31.7067ZM21.4858 36.8708C20.1283 36.8722 18.7772 36.6831 17.4723 36.3089C17.9187 35.4767 18.2089 34.5698 18.3285 33.6332C18.4223 32.7142 18.8302 31.8557 19.4833 31.2026C20.1364 30.5495 20.9949 30.1416 21.9139 30.0478C23.553 29.8135 25.0723 29.0548 26.2443 27.8852C27.4163 26.7156 28.1782 25.1978 28.4158 23.5593C28.5096 22.6403 28.9175 21.7818 29.5706 21.1287C30.2237 20.4755 31.0822 20.0676 32.0012 19.9739C33.2347 19.8134 34.4104 19.3542 35.426 18.636C35.9901 20.7738 36.0568 23.0122 35.6214 25.1798C35.1859 27.3474 34.2596 29.3865 32.9137 31.1405C31.5679 32.8944 29.8382 34.317 27.8571 35.2987C25.8762 36.2804 23.6967 36.7953 21.4858 36.8039V36.8708Z" fill="#4C4C4C"/>
</g>
</g>
</svg>
