<svg width="164" height="51" viewBox="0 0 164 51" fill="none" xmlns="http://www.w3.org/2000/svg">
<g id="Logo">
<g id="Vector">
<path d="M29.5072 14.6963H31.9802V31.9082H39.3991V34.3812H29.5072V14.6963ZM47.1024 14.6963C48.5697 14.6963 50.0041 15.1315 51.2241 15.9467C52.4441 16.7619 53.3951 17.9205 53.9566 19.2762C54.5181 20.6318 54.665 22.1235 54.3788 23.5626C54.0925 25.0017 53.386 26.3236 52.3483 27.3612C51.3108 28.3988 49.9889 29.1054 48.5497 29.3916C47.1107 29.6779 45.619 29.531 44.2633 28.9695C42.9076 28.4079 41.749 27.457 40.9338 26.237C40.1186 25.0169 39.6835 23.5826 39.6835 22.1153C39.6835 21.141 39.8754 20.1762 40.2482 19.2762C40.621 18.376 41.1675 17.5582 41.8565 16.8693C42.5453 16.1804 43.3631 15.6338 44.2633 15.261C45.1633 14.8882 46.1282 14.6963 47.1024 14.6963ZM47.1024 27.0612C48.0806 27.0612 49.0369 26.7711 49.8503 26.2277C50.6636 25.6841 51.2976 24.9117 51.6718 24.0079C52.0462 23.1042 52.1442 22.1098 51.9533 21.1503C51.7625 20.1909 51.2914 19.3097 50.5997 18.618C49.908 17.9263 49.0267 17.4552 48.0674 17.2644C47.1078 17.0735 46.1135 17.1714 45.2097 17.5458C44.306 17.9201 43.5334 18.5541 42.99 19.3674C42.4465 20.1808 42.1565 21.1371 42.1565 22.1153C42.163 23.4227 42.6869 24.6744 43.6138 25.5966C44.5406 26.5188 45.7949 27.0365 47.1024 27.0365V27.0612ZM42.1565 31.933H52.0483V34.4059H42.1565V31.933ZM73.8105 34.4059H71.3375V32.6378C69.7427 33.7541 67.8437 34.354 65.897 34.3565C64.237 34.3676 62.6009 33.9608 61.1395 33.1735C59.678 32.3861 58.4381 31.2437 57.5343 29.8515C56.6303 28.4592 56.0912 26.8618 55.9668 25.2063C55.8423 23.5511 56.1364 21.891 56.8221 20.3792C57.5077 18.8674 58.5628 17.5524 59.89 16.5555C61.2174 15.5585 62.7743 14.9116 64.4172 14.6745C66.0602 14.4372 67.7365 14.6173 69.2915 15.1981C70.8467 15.7789 72.2307 16.7416 73.3159 17.9978L71.4983 19.6176C70.6728 18.6946 69.6296 17.9931 68.4634 17.5767C67.2974 17.1603 66.0457 17.0423 64.8225 17.2336C63.5991 17.4249 62.4432 17.9194 61.4599 18.6718C60.4766 19.4243 59.6973 20.4108 59.193 21.5417C58.6887 22.6724 58.4754 23.9114 58.5725 25.1458C58.6697 26.3801 59.0742 27.5705 59.7493 28.6084C60.4244 29.6463 61.3485 30.4989 62.4374 31.0882C63.5263 31.6775 64.7455 31.9849 65.9836 31.9824C67.0111 31.9845 68.027 31.7647 68.9618 31.3378C69.8964 30.911 70.728 30.2873 71.3994 29.5094H64.7223V27.0365H73.8352L73.8105 34.4059ZM82.911 14.7458C84.3784 14.7458 85.8127 15.1809 87.0328 15.9961C88.2528 16.8113 89.2038 17.9699 89.7653 19.3256C90.3268 20.6813 90.4737 22.173 90.1874 23.612C89.9012 25.0512 89.1946 26.3731 88.157 27.4106C87.1194 28.4483 85.7975 29.1548 84.3584 29.4411C82.9193 29.7273 81.4276 29.5804 80.072 29.0189C78.7163 28.4573 77.5577 27.5065 76.7425 26.2864C75.9272 25.0664 75.4921 23.6321 75.4921 22.1647C75.4856 21.1842 75.6735 20.2122 76.045 19.3047C76.4164 18.3973 76.9641 17.5724 77.6562 16.878C78.3484 16.1835 79.1714 15.6331 80.0776 15.2586C80.9839 14.8842 81.9553 14.693 82.9358 14.6963L82.911 14.7458ZM82.911 27.1107C83.8892 27.1107 84.8455 26.8206 85.6589 26.2771C86.4723 25.7336 87.1062 24.9612 87.4805 24.0574C87.8549 23.1537 87.9528 22.1593 87.7619 21.1998C87.5711 20.2404 87.1 19.3591 86.4083 18.6674C85.7166 17.9757 84.8354 17.5046 83.876 17.3139C82.9165 17.1229 81.9221 17.2209 81.0184 17.5953C80.1146 17.9696 79.3421 18.6035 78.7986 19.4169C78.2552 20.2302 77.9651 21.1865 77.9651 22.1647C77.9846 23.4678 78.5177 24.7106 79.4485 25.6229C80.3792 26.5351 81.6325 27.0431 82.9358 27.0365L82.911 27.1107ZM77.9651 31.9824H87.857V34.4554H77.9651V31.9824ZM92.9637 14.6963H95.4367V34.3565H92.9637V14.6963ZM98.8617 14.6963H101.335C101.462 14.6829 101.591 14.6829 101.718 14.6963C102.754 14.5839 103.801 14.691 104.793 15.0104C105.785 15.3299 106.698 15.8546 107.473 16.5503C108.249 17.2461 108.869 18.0974 109.293 19.0488C109.718 20.0001 109.937 21.0302 109.937 22.072C109.937 23.1137 109.718 24.1438 109.293 25.0952C108.869 26.0465 108.249 26.8979 107.473 27.5936C106.698 28.2894 105.785 28.814 104.793 29.1336C103.801 29.4529 102.754 29.56 101.718 29.4476H101.335V34.3936H98.8617V14.6963ZM101.335 17.1693V26.9499H101.718C102.416 27.0429 103.127 26.9857 103.801 26.7818C104.476 26.578 105.099 26.2324 105.629 25.7682C106.159 25.304 106.584 24.7319 106.875 24.0902C107.166 23.4484 107.317 22.7519 107.317 22.0472C107.317 21.3426 107.166 20.6461 106.875 20.0043C106.584 19.3626 106.159 18.7905 105.629 18.3263C105.099 17.862 104.476 17.5165 103.801 17.3126C103.127 17.1088 102.416 17.0516 101.718 17.1446C101.583 17.1586 101.451 17.1876 101.322 17.2311L101.335 17.1693ZM119.152 16.1183L117.322 17.565C117.007 17.2351 116.603 17.0021 116.16 16.8936C115.716 16.785 115.251 16.8053 114.819 16.9521C114.386 17.0987 114.005 17.3658 113.719 17.7219C113.433 18.078 113.255 18.5083 113.205 18.9622V19.1601C113.205 20.2482 113.959 20.9777 115.431 21.0766C121.094 21.4228 123.69 24.0813 123.69 27.5929V27.8155C123.544 29.2053 123.002 30.5239 122.128 31.6144C121.254 32.705 120.085 33.5215 118.76 33.967C117.436 34.4124 116.011 34.468 114.656 34.1271C113.301 33.7863 112.072 33.0634 111.115 32.0442L113.007 30.5852C113.447 31.0572 113.985 31.4276 114.583 31.6711C115.181 31.9144 115.824 32.025 116.469 31.9948C117.66 32.0576 118.829 31.6578 119.732 30.879C120.636 30.1002 121.203 29.0026 121.316 27.8155V27.6424C121.316 24.3409 118.077 23.7351 115.27 23.463C112.673 23.2157 110.806 21.5959 110.806 19.259V19.1601C110.898 17.9434 111.453 16.8083 112.357 15.9892C113.261 15.17 114.446 14.7294 115.666 14.7582C116.312 14.7391 116.955 14.8557 117.554 15.1007C118.152 15.3456 118.693 15.7133 119.14 16.1801L119.152 16.1183ZM133.372 31.8464C136.451 31.8464 138.887 28.5203 138.887 24.4275V14.5356H141.36V24.4275C141.36 29.868 137.799 34.2576 133.422 34.2576C129.044 34.2576 125.483 29.868 125.483 24.4275V14.5356H127.956V24.4275C127.857 28.5821 130.293 31.9082 133.36 31.9082L133.372 31.8464ZM160.34 34.3194H157.867V22.0782L152.167 29.4971L146.466 22.0782V34.3565H143.993V14.6963L152.154 25.4414L160.315 14.6963L160.34 34.3194Z" fill="#4C4C4C"/>
<path d="M17.6369 11.7411C17.6369 9.95716 16.9283 8.24624 15.6668 6.98479C14.4054 5.72333 12.6944 5.01465 10.9104 5.01465C9.12647 5.01465 7.41557 5.72333 6.1541 6.98479C4.89264 8.24624 4.18396 9.95716 4.18396 11.7411V32.0813L9.72342 36.0505V45.7198H12.0975V36.0505L17.6369 32.0813V11.7411ZM15.2629 23.1168L12.0975 26.2822V23.3146L15.2629 20.1492V23.1168ZM6.60747 20.1492L9.77288 23.3146V26.2822L6.60747 23.1168V20.1492ZM15.2629 16.786L10.9104 21.1384L6.55801 16.6871V13.7195L10.9104 18.0719L15.2629 13.7195V16.786ZM10.9104 7.3887C11.8677 7.39293 12.7971 7.71084 13.5564 8.29372C14.3157 8.8766 14.863 9.69231 15.1145 10.6159L10.9104 14.8076L6.70639 10.6159C6.94867 9.68313 7.49202 8.85635 8.25216 8.2639C9.0123 7.67144 9.94672 7.3464 10.9104 7.33923V7.3887ZM6.55801 30.8819V26.4306L9.72342 29.596V33.1323L6.55801 30.8819ZM12.0975 33.1447V29.596L15.2629 26.4306V30.8696L12.0975 33.1447Z" fill="#4C4C4C"/>
</g>
</g>
</svg>
