<svg width="178" height="48" viewBox="0 0 178 48" fill="none" xmlns="http://www.w3.org/2000/svg">
<g id="Logo">
<g id="Vector">
<path d="M52.3546 15.9938H56.649V33.3857H52.3546V15.9938ZM58.3615 26.8437C58.3615 22.5358 61.0371 19.9538 65.0506 19.9538C69.0642 19.9538 71.7398 22.5358 71.7398 26.8437C71.7398 31.1515 69.1578 33.7603 65.0506 33.7603C60.9435 33.7603 58.3615 31.2451 58.3615 26.8437ZM67.4855 26.8437C67.4855 24.4757 66.5624 23.0843 65.0908 23.0843C63.6192 23.0843 62.7094 24.4222 62.7094 26.8437C62.7094 29.2651 63.6192 30.5896 65.0908 30.5896C66.5624 30.5896 67.5123 29.2651 67.5123 26.857L67.4855 26.8437ZM73.4523 34.282H77.5996C77.7883 34.7285 78.1181 35.1011 78.5385 35.3425C78.9588 35.5842 79.4466 35.6815 79.9274 35.6199C81.5729 35.6199 82.4292 34.7369 82.4292 33.4258V31.0177H82.4425C82.0882 31.7676 81.515 32.3925 80.7987 32.8104C80.0823 33.2284 79.2562 33.4195 78.429 33.3589C75.2851 33.3589 73.1981 30.9642 73.1981 26.8437C73.1981 22.7231 75.1915 20.1545 78.5494 20.1545C79.3978 20.1091 80.2394 20.3279 80.9581 20.7807C81.6769 21.2336 82.2376 21.8982 82.5629 22.683H82.4425V20.2615H86.6969V33.292C86.6969 36.436 83.9142 38.4026 79.8204 38.4026C76.1012 38.3892 73.7198 36.6901 73.479 34.2954L73.4523 34.282ZM82.4425 26.8437C82.4425 24.7433 81.4793 23.4188 79.9542 23.4188C78.429 23.4188 77.4925 24.7566 77.4925 26.8437C77.4925 28.9307 78.4156 30.1615 79.9542 30.1615C81.4927 30.1615 82.4425 29.0243 82.4425 26.8437ZM88.3959 26.8437C88.3959 22.5358 91.0716 19.9538 95.0851 19.9538C99.0986 19.9538 101.774 22.5358 101.774 26.8437C101.774 31.1515 99.1789 33.7603 95.0851 33.7603C90.9913 33.7603 88.4227 31.2451 88.4227 26.8437H88.3959ZM97.52 26.8437C97.52 24.4757 96.5835 23.0843 95.1252 23.0843C93.667 23.0843 92.7439 24.4222 92.7439 26.8437C92.7439 29.2651 93.6536 30.5896 95.1252 30.5896C96.5969 30.5896 97.5467 29.2651 97.5467 26.857L97.52 26.8437ZM103.513 17.0908C103.495 16.6533 103.607 16.2203 103.837 15.8474C104.066 15.4744 104.402 15.1788 104.801 14.9983C105.2 14.8177 105.644 14.7607 106.075 14.8346C106.507 14.9083 106.907 15.1095 107.223 15.4122C107.539 15.7151 107.758 16.1055 107.85 16.5335C107.943 16.9614 107.905 17.4074 107.742 17.8137C107.579 18.2201 107.298 18.5685 106.936 18.814C106.573 19.0594 106.145 19.1908 105.708 19.1912C105.428 19.1983 105.149 19.1498 104.888 19.0485C104.628 18.9471 104.389 18.7948 104.188 18.6007C103.986 18.4066 103.825 18.1743 103.714 17.9173C103.603 17.6605 103.544 17.3841 103.54 17.1042L103.513 17.0908ZM103.513 20.2481H107.861V33.4392H103.58L103.513 20.2481ZM123.501 26.8437C123.501 31.1381 121.574 33.6265 118.297 33.6265C117.458 33.6783 116.623 33.4712 115.905 33.0334C115.187 32.5956 114.621 31.948 114.283 31.1783H114.203V37.6801H109.908V20.2883H114.176V22.6428H114.256C114.583 21.8579 115.143 21.1926 115.861 20.7378C116.58 20.2829 117.421 20.0606 118.27 20.101C121.641 20.0742 123.581 22.5492 123.581 26.857L123.501 26.8437ZM119.126 26.8437C119.126 24.7566 118.149 23.4054 116.638 23.4054C115.126 23.4054 114.176 24.7433 114.163 26.8437C114.149 28.9441 115.126 30.2685 116.638 30.2685C118.149 30.2685 119.206 29.0243 119.206 26.857L119.126 26.8437ZM130.832 19.9404C134.431 19.9404 136.665 21.6395 136.692 24.3687H132.772C132.772 23.4188 131.983 22.8301 130.805 22.8301C129.628 22.8301 129.066 23.285 129.066 23.9673C129.066 24.6496 129.561 24.8637 130.551 25.0643L133.307 25.6262C135.983 26.1881 137.053 27.2584 137.053 29.2518C137.053 31.9274 134.578 33.7469 130.899 33.7469C127.22 33.7469 124.825 31.981 124.651 29.2919H128.812C128.932 30.2685 129.708 30.8438 130.966 30.8438C132.223 30.8438 132.812 30.4424 132.812 29.7334C132.812 29.0243 132.411 28.9039 131.381 28.6899L128.892 28.1681C126.31 27.6196 124.959 26.2684 124.959 24.2483C125.039 21.6261 127.287 19.9538 130.912 19.9538L130.832 19.9404ZM151.435 33.4258H147.274V30.9508H147.194C146.961 31.7764 146.454 32.4979 145.756 32.9964C145.057 33.495 144.211 33.7407 143.354 33.6934C142.708 33.7144 142.063 33.5985 141.465 33.3532C140.867 33.108 140.327 32.7388 139.881 32.2702C139.434 31.8014 139.093 31.2437 138.878 30.6336C138.662 30.0236 138.578 29.3747 138.632 28.73V20.2615H142.926V27.8069C142.926 29.3588 143.742 30.2016 145.08 30.2016C145.394 30.1992 145.704 30.1295 145.988 29.9973C146.273 29.865 146.526 29.6732 146.73 29.4348C146.934 29.1964 147.086 28.9169 147.172 28.6154C147.258 28.3137 147.279 27.997 147.234 27.6865V20.2615H151.515L151.435 33.4258ZM153.508 20.2481H157.683V22.79H157.776C158.006 21.9757 158.501 21.2609 159.181 20.7573C159.862 20.2539 160.69 19.99 161.536 20.0073C162.385 19.9335 163.232 20.1791 163.909 20.6962C164.587 21.2132 165.047 21.9647 165.201 22.8034H165.388C165.656 21.9601 166.194 21.2289 166.92 20.7233C167.645 20.2176 168.519 19.966 169.402 20.0073C169.989 19.985 170.575 20.0869 171.12 20.3064C171.666 20.5259 172.158 20.858 172.566 21.2812C172.974 21.7042 173.287 22.2087 173.486 22.7615C173.687 23.3143 173.767 23.903 173.723 24.4891V33.4392H169.402V25.5861C169.402 24.2483 168.773 23.4991 167.556 23.4991C167.286 23.4946 167.018 23.5487 166.77 23.6573C166.523 23.7661 166.304 23.927 166.124 24.1291C165.945 24.3312 165.811 24.5695 165.732 24.8279C165.655 25.0864 165.633 25.3587 165.669 25.6262V33.4392H161.576V25.546C161.576 24.2081 160.92 23.4991 159.743 23.4991C159.47 23.4969 159.2 23.5531 158.951 23.6639C158.701 23.7748 158.479 23.9376 158.297 24.1416C158.116 24.3456 157.981 24.5861 157.901 24.8467C157.819 25.1074 157.795 25.3823 157.83 25.653V33.4392H153.535L153.508 20.2481Z" fill="#4C4C4C"/>
<path d="M43.8593 17.131C43.8594 14.4683 43.0554 11.8676 41.5525 9.66959C40.0495 7.4716 37.9177 5.77877 35.4364 4.81285C32.9551 3.84692 30.2398 3.65293 27.6464 4.25628C25.0529 4.85964 22.7022 6.2322 20.902 8.1942H4.20581V43.4328H39.4578V26.9641C40.8414 25.7266 41.9486 24.2112 42.707 22.5168C43.4654 20.8224 43.8581 18.9873 43.8593 17.131ZM37.0765 17.131C37.0791 18.4068 36.7032 19.6549 35.9963 20.7172C35.2892 21.7793 34.2832 22.6079 33.1051 23.098C31.927 23.5882 30.6301 23.7178 29.3783 23.4704C28.1266 23.2232 26.9763 22.6101 26.0731 21.7088C25.17 20.8075 24.5546 19.6585 24.3047 18.4073C24.0547 17.1561 24.1817 15.8588 24.6694 14.6798C25.157 13.5007 25.9835 12.4928 27.0441 11.7836C28.1049 11.0745 29.3522 10.696 30.6281 10.696C32.336 10.696 33.9741 11.3735 35.183 12.5799C36.392 13.7863 37.073 15.4231 37.0765 17.131ZM32.675 36.65H10.9886V14.977H17.5975C17.4699 15.6881 17.4028 16.4087 17.3969 17.131C17.4005 20.639 18.7956 24.0024 21.2762 26.483C23.7567 28.9635 27.12 30.3587 30.6281 30.3622C31.314 30.3586 31.9984 30.3004 32.675 30.1883V36.65Z" fill="#4C4C4C"/>
</g>
</g>
</svg>
