<svg width="199" height="37" viewBox="0 0 199 37" fill="none" xmlns="http://www.w3.org/2000/svg">
<g id="Logo" clip-path="url(#clip0_418_427)">
<g id="Vector">
<path d="M111.501 26.9922H115.737V11.0172H111.501V26.9922ZM111.501 8.52605H115.737V4.72693H111.501V8.52605Z" fill="#4C4C4C"/>
<path d="M118.466 32.2238H122.701V25.186H122.763C123.666 26.5562 125.13 27.4593 127.371 27.4593C131.482 27.4593 134.285 24.1896 134.285 19.0203C134.285 14.0378 131.576 10.5813 127.341 10.5813C125.161 10.5813 123.666 11.609 122.639 13.0102H122.545V11.0172H118.466V32.2238ZM126.469 23.9405C123.946 23.9405 122.608 22.0409 122.608 19.1449C122.608 16.2799 123.666 14.0068 126.313 14.0068C128.929 14.0068 129.987 16.1243 129.987 19.1449C129.987 22.1655 128.618 23.9405 126.469 23.9405Z" fill="#4C4C4C"/>
<path d="M142.733 27.4593C146.719 27.4593 149.459 25.5286 149.459 22.3211C149.459 18.5844 146.501 17.837 143.823 17.2765C141.549 16.8094 139.432 16.6848 139.432 15.3146C139.432 14.1624 140.522 13.5396 142.172 13.5396C143.979 13.5396 145.069 14.1624 145.255 15.8751H149.085C148.775 12.6677 146.439 10.5813 142.235 10.5813C138.591 10.5813 135.727 12.2318 135.727 15.6883C135.727 19.176 138.529 19.9545 141.394 20.5151C143.574 20.951 145.597 21.1067 145.597 22.6326C145.597 23.7536 144.539 24.4699 142.671 24.4699C140.771 24.4699 139.463 23.6602 139.183 21.8229H135.26C135.509 25.2172 138.093 27.4593 142.733 27.4593Z" fill="#4C4C4C"/>
<path d="M165.538 26.9922V11.0172H161.303V20.2348C161.303 22.3523 160.089 23.847 158.096 23.847C156.289 23.847 155.449 22.8194 155.449 20.951V11.0172H151.245V21.6672C151.245 25.1549 153.238 27.4282 156.788 27.4282C159.031 27.4282 160.276 26.5874 161.366 25.1238H161.459V26.9922H165.538Z" fill="#4C4C4C"/>
<path d="M168.278 26.9922H172.513V17.7124C172.513 15.5948 173.665 14.2247 175.378 14.2247C176.935 14.2247 177.838 15.1589 177.838 16.965V26.9922H182.073V17.7124C182.073 15.5948 183.163 14.2247 184.938 14.2247C186.495 14.2247 187.398 15.1589 187.398 16.965V26.9922H191.633V16.2488C191.633 12.7611 189.733 10.5813 186.37 10.5813C184.346 10.5813 182.664 11.64 181.574 13.3839H181.513C180.734 11.7023 179.115 10.5813 177.09 10.5813C174.88 10.5813 173.323 11.7023 172.451 13.1659H172.357V11.0172H168.278V26.9922Z" fill="#4C4C4C"/>
<path d="M1.12024 26.9922H5.35531V4.72693H1.12024V26.9922Z" fill="#4C4C4C"/>
<path d="M15.7107 27.4593C20.662 27.4593 24.0562 23.7848 24.0562 19.0203C24.0562 14.2558 20.662 10.5813 15.7107 10.5813C10.7593 10.5813 7.36507 14.2558 7.36507 19.0203C7.36507 23.7848 10.7593 27.4593 15.7107 27.4593ZM15.7107 24.2207C13.0949 24.2207 11.6624 22.1343 11.6624 19.0203C11.6624 15.9063 13.0949 13.7888 15.7107 13.7888C18.2953 13.7888 19.7589 15.9063 19.7589 19.0203C19.7589 22.1343 18.2953 24.2207 15.7107 24.2207Z" fill="#4C4C4C"/>
<path d="M33.0626 32.4417C35.4292 32.4417 37.4845 31.8813 38.8235 30.6356C40.0069 29.5457 40.7231 28.0198 40.7231 25.7778V11.0172H36.6438V12.6989H36.5815C35.6161 11.3598 34.1525 10.5813 32.1595 10.5813C28.1113 10.5813 25.2464 13.633 25.2464 18.3975C25.2464 23.2242 28.7341 26.0268 32.2841 26.0268C34.3082 26.0268 35.5227 25.2172 36.4568 24.1584H36.5503V25.9023C36.5503 28.0821 35.3981 29.2343 33.0003 29.2343C31.0385 29.2343 30.1354 28.4558 29.7929 27.4593H25.5889C26.0249 30.5734 28.703 32.4417 33.0626 32.4417ZM33.0003 22.6326C30.8205 22.6326 29.3881 21.0444 29.3881 18.3352C29.3881 15.6572 30.8205 13.9756 32.9691 13.9756C35.5227 13.9756 36.7683 15.9686 36.7683 18.3041C36.7683 20.6707 35.6784 22.6326 33.0003 22.6326Z" fill="#4C4C4C"/>
<path d="M51.0171 27.4593C55.9684 27.4593 59.3627 23.7848 59.3627 19.0203C59.3627 14.2558 55.9684 10.5813 51.0171 10.5813C46.0658 10.5813 42.6715 14.2558 42.6715 19.0203C42.6715 23.7848 46.0658 27.4593 51.0171 27.4593ZM51.0171 24.2207C48.4013 24.2207 46.9689 22.1343 46.9689 19.0203C46.9689 15.9063 48.4013 13.7888 51.0171 13.7888C53.6017 13.7888 55.0654 15.9063 55.0654 19.0203C55.0654 22.1343 53.6017 24.2207 51.0171 24.2207Z" fill="#4C4C4C"/>
<path d="M193.172 8.39457C193.172 7.67797 193.753 7.09706 194.47 7.09706H197.065C197.781 7.09706 198.363 7.67797 198.363 8.39457C198.363 9.11116 197.781 9.69208 197.065 9.69208H194.47C193.753 9.69208 193.172 9.11116 193.172 8.39457Z" fill="#4C4C4C"/>
<path fill-rule="evenodd" clip-rule="evenodd" d="M85.0464 0.177002C95.0784 0.177002 103.212 8.30982 103.212 18.3421C103.212 28.3745 95.0784 36.5073 85.0464 36.5073C75.0141 36.5073 66.8813 28.3745 66.8813 18.3421C66.8813 8.30982 75.0141 0.177002 85.0464 0.177002ZM84.3898 1.53629C82.3175 1.82793 80.3442 3.49312 78.8124 6.27813C78.3681 7.08596 77.9672 7.97844 77.6179 8.94208C79.7007 8.41868 81.9887 8.1101 84.3898 8.06237V1.53629ZM76.0826 9.37837C76.5171 8.01488 77.0485 6.76041 77.6618 5.6453C78.4211 4.26469 79.3223 3.07248 80.3376 2.15679C74.8164 3.76028 70.4645 8.11225 68.861 13.6335C69.7767 12.6181 70.9689 11.717 72.3495 10.9576C73.4647 10.3443 74.7191 9.81279 76.0826 9.37837ZM75.6463 10.9136C75.1229 12.9964 74.8144 15.2844 74.7666 17.6856H68.2405C68.5321 15.6132 70.1973 13.6399 72.9824 12.1082C73.7902 11.6639 74.6827 11.263 75.6463 10.9136ZM76.08 17.6856C76.1342 15.0652 76.5115 12.605 77.1357 10.4314C79.3093 9.80725 81.7694 9.42996 84.3898 9.37574V12.2121C83.4123 14.7147 81.4185 16.7084 78.9158 17.6856H76.08ZM74.7666 18.9987H68.2405C68.5321 21.0711 70.1973 23.0443 72.9824 24.5761C73.7902 25.0204 74.6827 25.4213 75.6463 25.7707C75.1229 23.6879 74.8144 21.3999 74.7666 18.9987ZM77.1357 26.2529C76.5115 24.0792 76.1342 21.6191 76.08 18.9987H78.9158C81.4185 19.9759 83.4123 21.9695 84.3898 24.4722V27.3085C81.7694 27.2543 79.3093 26.877 77.1357 26.2529ZM76.0826 27.3059C74.7191 26.8715 73.4647 26.34 72.3495 25.7266C70.9689 24.9673 69.7767 24.0662 68.861 23.0508C70.4645 28.572 74.8164 32.924 80.3376 34.5275C79.3223 33.6118 78.4211 32.4196 77.6618 31.0389C77.0485 29.9239 76.5171 28.6694 76.0826 27.3059ZM84.3898 35.148C82.3175 34.8563 80.3442 33.1911 78.8124 30.4062C78.3681 29.5984 77.9672 28.7058 77.6179 27.7422C79.7007 28.2656 81.9887 28.5742 84.3898 28.6219V35.148ZM89.7551 34.5275C90.7704 33.6118 91.6715 32.4196 92.4308 31.0389C93.0439 29.9239 93.5761 28.6694 94.0103 27.3059C95.3736 26.8715 96.6279 26.34 97.7432 25.7266C99.1238 24.9673 100.316 24.0662 101.232 23.0508C99.6278 28.572 95.2764 32.924 89.7551 34.5275ZM92.4753 27.7422C92.1256 28.7058 91.7242 29.5984 91.2801 30.4062C89.7486 33.1911 87.7753 34.8563 85.7029 35.148V28.6219C88.1041 28.5742 90.3921 28.2656 92.4753 27.7422ZM94.4462 25.7707C95.4099 25.4213 96.3027 25.0204 97.1102 24.5761C99.8958 23.0444 101.561 21.0711 101.852 18.9987H95.3263C95.2782 21.3999 94.9694 23.6879 94.4462 25.7707ZM94.013 18.9987C93.9585 21.6191 93.5816 24.0792 92.9567 26.2529C90.7834 26.877 88.3233 27.2543 85.7029 27.3085V24.4742C86.6802 21.9707 88.6744 19.9762 91.1778 18.9987H94.013ZM95.3263 17.6856H101.852C101.561 15.6132 99.8958 13.6399 97.1102 12.1082C96.3027 11.6639 95.4099 11.263 94.4462 10.9136C94.9694 12.9964 95.2782 15.2844 95.3263 17.6856ZM92.9567 10.4314C93.5816 12.605 93.9585 15.0652 94.013 17.6856H91.1779C88.6744 16.7081 86.6802 14.7136 85.7029 12.21V9.37574C88.3233 9.42996 90.7834 9.80725 92.9567 10.4314ZM94.0103 9.37837C95.3736 9.81279 96.6279 10.3443 97.7432 10.9576C99.1238 11.717 100.316 12.6181 101.232 13.6335C99.6278 8.11225 95.2764 3.76028 89.7551 2.15679C90.7704 3.07248 91.6715 4.26469 92.4308 5.6453C93.0439 6.76041 93.5761 8.01488 94.0103 9.37837ZM85.7029 1.53629C87.7753 1.82793 89.7486 3.49312 91.2801 6.27813C91.7242 7.08597 92.1256 7.97844 92.4753 8.94208C90.3921 8.41868 88.1041 8.1101 85.7029 8.06237V1.53629Z" fill="#4C4C4C"/>
</g>
</g>
<defs>
<clipPath id="clip0_418_427">
<rect width="198" height="36.3303" fill="white" transform="translate(0.371582 0.17688)"/>
</clipPath>
</defs>
</svg>
